<svg width="120" height="32" viewBox="0 0 120 32" fill="none" xmlns="http://www.w3.org/2000/svg">
<g clip-path="url(#clip0_4354_630)">
<mask id="mask0_4354_630" style="mask-type:alpha" maskUnits="userSpaceOnUse" x="0" y="0" width="33" height="32">
<ellipse cx="16.0055" cy="16" rx="16.0055" ry="16" fill="#FFEE00"/>
</mask>
<g mask="url(#mask0_4354_630)">
<ellipse cx="16.0055" cy="16" rx="16.0055" ry="16" fill="#FFEE00"/>
<ellipse cx="16.1272" cy="15.3258" rx="8.5414" ry="8.53848" fill="white"/>
<path fill-rule="evenodd" clip-rule="evenodd" d="M8.37299 34.1998C8.37703 34.1828 8.38756 34.1763 8.40467 34.1805C8.53235 34.2178 8.61818 34.1827 8.64359 34.0427C8.66653 34.0261 8.68946 34.0094 8.71238 33.9928C8.73871 33.9783 8.76505 33.9639 8.79139 33.9494C8.80429 33.9295 8.82252 33.9208 8.84611 33.9232C8.87421 33.906 8.90228 33.8888 8.93035 33.8715C8.99594 33.7841 9.09717 33.7612 9.1921 33.7267C9.19762 33.7719 9.20307 33.8173 9.20851 33.8627C9.21872 33.953 9.16093 34.0632 9.28386 34.1204C9.28386 34.1204 9.28009 34.1371 9.28006 34.1371C9.35532 34.2385 9.46526 34.2057 9.56353 34.206C10.2916 34.2081 11.0196 34.2083 11.7476 34.2066C11.8465 34.2063 11.955 34.2373 12.0364 34.1464C12.0584 34.1406 12.0807 34.1358 12.1031 34.1319C12.2646 33.8576 12.1437 33.5588 12.1752 33.2729C12.1912 33.1284 12.1526 32.9706 12.3212 32.8866C12.5954 32.8879 12.8695 32.8892 13.1436 32.8906C13.2546 33.0104 13.3212 32.9734 13.3577 32.83C13.6522 32.9645 13.9688 32.7487 14.263 32.8874C15.0253 32.8893 15.7876 32.8936 16.5499 32.8906C16.6817 32.8901 16.8243 32.9368 16.9445 32.8374C16.9974 32.8344 17.0504 32.8313 17.1034 32.8283C17.2952 32.8859 17.2122 32.7318 17.2159 32.6682C17.2454 32.1533 17.2162 31.6374 17.2415 31.1207C17.2533 30.8811 17.3298 30.5753 17.123 30.3456C17.0578 30.1361 17.1029 29.916 17.0432 29.7009C16.9069 29.2095 16.5316 28.9015 16.2145 28.5471C16.0337 28.345 15.8475 28.1476 15.6638 27.9481C15.4765 28.1468 15.3024 28.3602 15.0994 28.5414C14.5781 29.0067 14.2758 29.5724 14.2454 30.2759C14.1093 30.4137 14.2428 30.6066 14.1536 30.7565C13.8715 30.5787 13.7457 30.2626 13.4982 30.0608C13.4977 30.017 13.4971 29.9732 13.4966 29.9294C13.7412 29.6663 13.8191 29.3796 13.7214 29.0152C13.633 28.6854 13.7471 28.3789 14.0326 28.1643C14.2957 27.9665 14.5633 27.7744 14.8319 27.5842C15.1055 27.3904 15.3223 27.1417 15.5306 26.8833C15.6203 26.7719 15.7238 26.7032 15.8366 26.8527C16.2273 27.3707 16.759 27.7223 17.2747 28.0962C17.6326 28.3557 17.78 28.723 17.6633 29.1543C17.5966 29.4008 17.6415 29.5858 17.7886 29.7853C17.9406 29.9916 18.0846 30.2828 17.9455 30.4908C17.631 30.9613 17.68 31.3715 17.9858 31.7981C18.0062 32.1146 17.9168 32.4374 18.0407 32.7479L18.0557 32.7738C18.0528 32.9292 18.1105 33.101 18.2762 32.9903C18.4646 32.8643 18.6446 32.918 18.8283 32.8958C19.0944 32.8636 19.3697 32.9602 19.6297 32.8396C19.679 32.838 19.7284 32.8365 19.7777 32.8348C19.777 33.2259 19.7746 33.6171 19.7783 34.0083C19.7788 34.0512 19.7219 34.1589 19.8552 34.1222C19.8776 34.1262 19.8995 34.1322 19.9208 34.1403C20.3098 34.2492 20.6987 34.2489 21.0874 34.1387C21.1359 34.1284 21.1843 34.1181 21.2328 34.1079C21.3459 34.1173 21.459 34.1267 21.572 34.1362C21.7649 34.2802 21.9873 34.1733 22.1929 34.2095C22.1929 34.2308 22.1929 34.2521 22.1928 34.2735C17.6812 34.2749 13.1696 34.2764 8.65801 34.277C8.55762 34.277 8.44706 34.3024 8.37299 34.1998Z" fill="#F99204"/>
<path fill-rule="evenodd" clip-rule="evenodd" d="M9.25714 26.1404C9.15414 25.866 9.20218 25.579 9.21746 25.3025C9.23556 24.9746 9.16519 24.8104 8.79973 24.8749C8.62845 24.9052 8.45428 24.878 8.39966 24.6635C8.39484 24.6446 8.43183 24.6149 8.44932 24.5903C8.49502 24.5963 8.5408 24.6023 8.58659 24.6083C8.76291 24.8065 8.98155 24.6645 9.17327 24.6649C13.7948 24.6741 18.4164 24.6724 23.038 24.6689C23.1676 24.6688 23.3165 24.7301 23.4258 24.5992C23.4346 24.5791 23.4415 24.5583 23.4465 24.537C23.4646 24.5214 23.4827 24.5058 23.5008 24.4903C23.67 24.7809 23.4689 24.8467 23.2526 24.8725C22.7378 24.934 22.7371 24.9277 22.7362 25.4391C22.736 25.6108 22.733 25.7826 22.7361 25.9542C22.7395 26.1457 22.6756 26.2889 22.4776 26.3451C22.242 26.3517 22.009 26.3427 21.7747 26.2997C21.4283 26.2361 21.079 26.2288 20.7367 26.3388C20.6935 26.333 20.6503 26.3273 20.607 26.3216C20.5873 25.8774 20.903 25.5458 21.01 25.1398C21.0784 24.8803 20.9998 24.8741 20.804 24.8782C20.4837 24.8851 20.1631 24.881 19.8427 24.8816C17.5924 24.8805 15.3422 24.8776 13.092 24.8805C12.784 24.8809 12.393 24.7526 12.1892 24.9333C11.9613 25.1355 12.1253 25.5402 12.1102 25.8558C12.0914 26.2483 12.0214 26.3438 11.6156 26.3299C11.1131 26.3127 10.6131 26.2304 10.108 26.2671C10.0124 26.0323 9.92446 25.754 10.1517 25.5914C10.3791 25.4287 10.3639 25.2263 10.3399 25.0366C10.3121 24.8169 10.092 24.89 9.94037 24.8809C9.8372 24.8747 9.73245 24.8885 9.62999 24.878C9.36963 24.8514 9.27612 24.9867 9.27726 25.2231C9.27871 25.5224 9.28014 25.8216 9.28157 26.1209L9.25714 26.1404Z" fill="#C01B28"/>
<path fill-rule="evenodd" clip-rule="evenodd" d="M19.9952 20.1154C19.988 20.0916 19.9807 20.0678 19.9735 20.044C20 19.7742 19.9417 19.5179 19.8511 19.2666C19.8567 19.2501 19.8567 19.2337 19.8512 19.2172C19.8314 19.05 19.8928 18.8717 19.7824 18.717C19.6921 17.5142 19.4336 16.3417 19.1301 15.1788C18.9623 14.5359 18.7788 13.8965 18.5101 13.2854C18.4791 13.215 18.4796 13.1306 18.4656 13.0527C18.9586 13.2338 19.1953 13.6653 19.4315 14.0802C20.1069 15.2664 20.407 16.5801 20.6746 17.9005C20.8047 18.5422 20.9024 19.1905 21.0148 19.8359C21.0433 20.1381 21.0719 20.4404 21.1004 20.7425C21.0941 20.8598 20.9823 20.9505 21.0152 21.078L21.0154 21.076C20.6404 21.2719 20.366 21.8192 20.4079 22.2874C20.3796 22.3839 20.3014 22.3938 20.219 22.3965C20.1655 21.7035 20.1121 21.0106 20.0586 20.3176" fill="#FF0000"/>
<path fill-rule="evenodd" clip-rule="evenodd" d="M15.2843 11.2072C15.1498 11.5499 14.9253 11.8385 14.7257 12.1424C14.5284 12.4426 14.3937 12.766 14.3874 13.1324C14.3187 13.3156 14.25 13.4988 14.1812 13.682C14.0959 13.6894 14.0241 13.7206 13.9907 13.8054C13.8208 14.2373 13.6705 14.678 13.478 15.0995C13.3 15.4893 13.2442 15.907 13.134 16.3122C12.8137 17.4896 12.5592 18.6786 12.5224 19.9045C12.3665 20.2809 12.4084 20.6919 12.3168 21.0795C12.2399 21.976 12.1132 22.8699 12.1766 23.7738C12.1556 23.8196 12.1346 23.8655 12.1136 23.9114C12.1082 23.7857 12.0971 23.6599 12.0987 23.5342C12.1024 23.2419 11.9996 23.0246 11.7 22.9367C11.7015 22.3381 11.8448 21.7493 11.8226 21.1491C12.0043 20.7503 11.8987 20.319 11.9531 19.9038C12.1728 18.2264 12.4358 16.5589 12.8749 14.9245C13.0462 14.2867 13.2795 13.6655 13.4846 13.0368C13.8501 12.3503 14.2406 11.6811 14.8061 11.1335C14.9231 11.1476 15.0402 11.1617 15.1573 11.1758C15.1996 11.1863 15.2419 11.1968 15.2843 11.2072Z" fill="#FBAE34"/>
<path fill-rule="evenodd" clip-rule="evenodd" d="M13.4848 13.0372C13.2798 13.6659 13.0465 14.2871 12.8751 14.9249C12.436 16.5592 12.173 18.2268 11.9533 19.9042C11.8989 20.3194 12.0046 20.7507 11.8229 21.1494C11.5975 21.2694 11.3723 21.116 11.1468 21.1483C11.052 21.0104 10.9571 20.8725 10.8623 20.7346C10.8797 20.5035 10.8971 20.2724 10.9146 20.0413C10.9236 19.95 10.9326 19.8587 10.9416 19.7674C10.9828 19.4904 11.024 19.2134 11.0653 18.9364C11.0804 18.9177 11.0841 18.8969 11.0763 18.874C11.1178 18.8357 11.1276 18.7895 11.111 18.7365C11.1193 18.6656 11.1277 18.5946 11.136 18.5237C11.1419 18.4791 11.1478 18.4345 11.1537 18.39C11.3628 17.4742 11.5311 16.5479 11.8325 15.6554C12.1086 14.8379 12.4171 14.0345 13.0063 13.3785C13.139 13.2307 13.2679 13.0701 13.4848 13.0372Z" fill="#FF0000"/>
<path fill-rule="evenodd" clip-rule="evenodd" d="M22.0401 26.9037C21.9905 27.8772 22.0722 28.8327 22.4002 29.7601C22.6744 30.5351 22.7303 31.3079 22.3113 32.059C21.9971 31.9965 21.683 31.931 21.3606 31.9252C21.5639 31.334 21.35 30.8286 20.9638 30.4152C20.6328 30.0609 20.6468 29.6665 20.6887 29.258C20.7128 29.0228 20.8185 28.7968 20.8919 28.5678C21.0584 28.0485 21.3449 27.5359 21.0891 26.962C21.4051 26.9264 21.7275 26.9942 22.0401 26.9037Z" fill="#F79507"/>
<path fill-rule="evenodd" clip-rule="evenodd" d="M18.3999 3.57163C18.4564 3.5811 18.519 3.57777 18.5683 3.60194C19.3741 3.99759 20.1723 3.89562 20.9683 3.57164C21.029 3.54693 21.0903 3.5237 21.2224 3.47192C20.8621 4.01953 20.3793 4.2647 19.8259 4.473C20.1375 4.77253 20.5121 4.68406 20.9355 4.70283C20.6327 4.96116 20.3499 5.04862 20.0464 5.08989C19.6202 5.05591 19.1941 5.02194 18.7679 4.98797C18.1698 4.79036 17.5695 4.62242 16.9289 4.77295C16.777 4.80864 16.6274 4.89077 16.462 4.83467C16.5816 4.38439 17.0223 4.29597 17.3416 4.08728C17.6675 3.87426 18.045 3.74023 18.3999 3.57163Z" fill="#E70000"/>
<path fill-rule="evenodd" clip-rule="evenodd" d="M12.113 23.912C12.134 23.8661 12.155 23.8203 12.176 23.7744C12.8077 23.9596 13.4571 23.9021 14.1013 23.9155C14.1247 23.9147 14.148 23.914 14.1714 23.9133C14.1258 24.1218 14.062 24.336 14.4041 24.3349C16.2178 24.329 18.0315 24.3254 19.8453 24.3211C20.1909 24.3223 20.5365 24.3235 20.8821 24.3248C21.5011 24.3248 22.1202 24.3249 22.7393 24.325C22.8953 24.3286 23.0515 24.3292 23.2073 24.3368C23.3269 24.3426 23.4631 24.325 23.5002 24.4909C23.4821 24.5065 23.464 24.5221 23.4458 24.5376C19.8117 24.5369 16.1778 24.536 12.5438 24.5367C12.444 24.5368 12.3343 24.5058 12.2507 24.5951L11.968 24.5935C11.8595 24.4971 11.7271 24.5382 11.6055 24.5377C10.7003 24.5336 9.79507 24.5367 8.88986 24.5322C8.76841 24.5315 8.59111 24.6018 8.58997 24.368C8.63706 24.3623 8.68417 24.3566 8.73122 24.3509C8.86296 24.4239 8.99572 24.4213 9.1293 24.3561C9.15443 24.3455 9.17958 24.3349 9.20471 24.3244C9.25307 24.3304 9.30144 24.3363 9.34981 24.3423C9.39297 24.402 9.43624 24.4019 9.47957 24.3425C9.64413 24.3417 9.80868 24.3409 9.97315 24.3399C10.0816 24.4256 10.1922 24.4195 10.3043 24.3473C10.5865 24.3483 10.8687 24.3493 11.1509 24.3503C11.3285 24.4258 11.5061 24.4259 11.6837 24.3502C12.0532 24.4261 12.035 24.1219 12.113 23.912Z" fill="#F89109"/>
<path fill-rule="evenodd" clip-rule="evenodd" d="M9.62228 32.0597C9.13329 31.1961 9.33109 30.3367 9.62492 29.471C9.84105 28.8342 9.91421 28.1723 9.91058 27.5008C9.90959 27.317 9.92473 27.1332 9.93243 26.9495C10.0824 26.9463 10.2325 26.9432 10.3825 26.9401C10.4275 26.9477 10.4725 26.9554 10.5175 26.963C10.6274 27.3819 10.5804 27.7932 10.4148 28.1836C10.2178 28.6479 10.0767 29.1258 9.98665 29.6202C9.9644 29.7422 9.93956 29.8642 10.0228 29.9818C10.1999 30.2318 10.3451 30.5091 10.5482 30.7347C10.7904 31.0037 10.8319 31.2974 10.7645 31.6235C10.7433 31.7259 10.7274 31.8244 10.7329 31.9275C10.6869 31.9354 10.641 31.9432 10.595 31.9511C10.2585 31.8769 9.94319 31.9936 9.62228 32.0597Z" fill="#FFC300"/>
<path fill-rule="evenodd" clip-rule="evenodd" d="M15.8287 7.82123C15.8561 7.75119 15.8835 7.68116 15.911 7.61105C15.9543 7.63257 15.9976 7.65418 16.041 7.67578C16.3711 8.0808 16.6982 8.48815 16.9631 8.94058C17.1897 9.32765 17.1183 9.59756 16.7331 9.82403C16.3736 10.0354 16.3714 10.0454 16.6146 10.3748C16.3265 10.3664 16.0384 10.3579 15.7502 10.3495C15.9413 10.1295 15.8725 9.94784 15.6849 9.76151C15.4976 9.57548 15.4372 9.35349 15.481 9.07554C15.5493 8.64148 15.7351 8.24509 15.8287 7.82123Z" fill="#FF0000"/>
<path fill-rule="evenodd" clip-rule="evenodd" d="M22.7397 24.3244C22.1208 24.3243 21.5019 24.3242 20.8831 24.3241C20.8853 24.2307 20.8523 24.1531 20.8045 24.0708C20.5767 23.6794 20.6205 23.4927 20.9784 23.2445C21.124 23.1436 21.2911 23.0648 21.3657 22.8865L21.6777 22.8454C21.7993 22.8657 21.9208 22.8859 22.0424 22.9061C22.1103 22.9673 22.1944 22.9386 22.2711 22.9447C22.5747 22.9692 22.7537 23.0986 22.7391 23.4357C22.7263 23.7314 22.7385 24.0281 22.7397 24.3244Z" fill="#C01B28"/>
<path fill-rule="evenodd" clip-rule="evenodd" d="M15.7511 10.3492C16.0393 10.3576 16.3276 10.3661 16.6158 10.3745C16.6384 10.372 16.6542 10.3813 16.6628 10.4025C16.6737 10.473 16.6915 10.5335 16.7834 10.4833C17.1116 10.3653 17.4107 10.4966 17.687 10.6333C17.8634 10.7207 17.8493 10.8974 17.6458 10.9792C17.4782 11.0467 17.2977 11.0821 17.1228 11.1318C16.5127 11.2254 15.8976 11.1906 15.2845 11.2071C15.2422 11.1966 15.1999 11.1862 15.1576 11.1758C15.0953 10.9123 14.9316 10.6308 15.2872 10.4411C15.2872 10.4411 15.3127 10.4324 15.3123 10.4325C15.4718 10.4756 15.6033 10.3694 15.7511 10.3492Z" fill="#C01B28"/>
<path fill-rule="evenodd" clip-rule="evenodd" d="M18.3994 3.57196C18.0445 3.74056 17.667 3.87459 17.3411 4.08761C17.0218 4.2963 16.5811 4.38472 16.4615 4.83501C16.3243 4.92699 16.187 5.01898 16.0498 5.11107C16.0597 4.6124 15.8825 4.11343 16.0514 3.61482C16.691 3.5238 17.3238 3.34748 17.9798 3.45671C18.1235 3.48064 18.2792 3.46209 18.3994 3.57196Z" fill="#FF0000"/>
<path fill-rule="evenodd" clip-rule="evenodd" d="M9.97364 24.3399C9.80914 24.3407 9.64465 24.3415 9.48021 24.3422C9.437 24.3421 9.39371 24.3421 9.35043 24.3421C9.30207 24.3362 9.25372 24.3302 9.20538 24.3242C9.20611 24.0596 9.20658 23.795 9.20758 23.5304C9.20927 23.0895 9.27272 23.0134 9.69745 22.9378C9.81037 22.9177 9.9228 22.8948 10.0355 22.8732C10.0939 22.8674 10.1524 22.8616 10.2109 22.8559C10.4054 22.8656 10.5998 22.8753 10.7942 22.885C10.7647 22.919 10.7403 22.9597 10.7051 22.9859C9.98522 23.5236 9.98497 23.5233 10.2415 24.3253C10.1523 24.3302 10.0629 24.335 9.97364 24.3399Z" fill="#EC4233"/>
<path fill-rule="evenodd" clip-rule="evenodd" d="M21.6966 21.1516C21.8148 21.289 21.933 21.4264 22.0512 21.5637C22.0598 21.6205 22.0778 21.6715 22.1339 21.6991C22.1522 21.7262 22.1706 21.7533 22.189 21.7803C22.2015 21.8223 22.214 21.8643 22.2266 21.9063C22.2475 22.2703 21.9912 22.4092 21.7176 22.5342C21.6101 22.5956 21.636 22.6814 21.6747 22.7695C21.6744 22.7935 21.6742 22.8176 21.674 22.8417C21.6335 22.8217 21.5704 22.812 21.5559 22.7802C21.3079 22.2341 20.8541 21.752 21.0156 21.0761C21.0156 21.0761 21.0154 21.0781 21.0154 21.0781C21.133 20.961 21.2507 20.8439 21.3683 20.7268C21.3902 20.7529 21.412 20.7789 21.4338 20.805C21.4337 20.8648 21.4449 20.9159 21.5204 20.9176C21.5204 20.9176 21.5272 20.9259 21.527 20.9259C21.506 21.0596 21.4819 21.1955 21.6966 21.1516Z" fill="#F79507"/>
<path fill-rule="evenodd" clip-rule="evenodd" d="M15.7509 10.349C15.6032 10.3692 15.4718 10.4755 15.3123 10.4323C15.5546 10.1357 15.5037 9.94144 15.1439 9.77294C14.8659 9.64276 14.7494 9.36272 14.9047 9.07895C15.1554 8.62108 15.434 8.17543 15.8295 7.82056C15.7359 8.24462 15.55 8.64101 15.4817 9.07507C15.438 9.35301 15.4984 9.575 15.6856 9.76104C15.8732 9.94737 15.9421 10.129 15.7509 10.349Z" fill="#F89109"/>
<path fill-rule="evenodd" clip-rule="evenodd" d="M22.0409 26.904C21.7282 26.9945 21.4059 26.9267 21.0899 26.9623C21.0397 26.8842 20.9586 26.8945 20.8829 26.8895C20.9441 26.6769 20.728 26.5378 20.7374 26.3389C21.0796 26.2288 21.4287 26.2362 21.7751 26.2998C22.0093 26.3428 22.2422 26.3517 22.4777 26.3452C22.7489 26.7325 22.7271 26.7603 22.0409 26.904Z" fill="#EC4233"/>
<path fill-rule="evenodd" clip-rule="evenodd" d="M22.3878 32.6105C21.9535 32.5512 21.5214 32.65 21.0876 32.6282C21.0876 32.6281 21.0871 32.6151 21.0871 32.6152C21.0992 32.3982 21.3781 32.1225 20.9525 32.0016C21.0888 31.9763 21.225 31.9511 21.3613 31.9258C21.6837 31.9316 21.9977 31.9972 22.312 32.0597C22.3661 32.0765 22.4223 32.089 22.4743 32.111C22.7226 32.2162 22.7559 32.3379 22.4928 32.4675C22.4276 32.4996 22.3635 32.5187 22.3878 32.6105Z" fill="#EC4233"/>
<path fill-rule="evenodd" clip-rule="evenodd" d="M10.3836 32.6253C10.0874 32.6319 9.79195 32.5353 9.49532 32.619C9.49858 32.5856 9.51769 32.5388 9.50257 32.5208C9.2363 32.204 9.2354 32.2047 9.62203 32.0595C9.94301 31.9934 10.2583 31.8767 10.5948 31.9506C10.5446 32.1711 10.4945 32.3919 10.4443 32.6126C10.4238 32.6155 10.4035 32.6197 10.3836 32.6253Z" fill="#F66056"/>
<path fill-rule="evenodd" clip-rule="evenodd" d="M15.2876 10.4413C14.9321 10.631 15.0957 10.9125 15.158 11.176C15.0409 11.1618 14.9239 11.1477 14.8069 11.1336C14.6208 11.0765 14.4265 11.0372 14.2505 10.9574C14.0417 10.8628 14.0265 10.7259 14.2508 10.6235C14.579 10.4738 14.9234 10.3961 15.2876 10.4413Z" fill="#EC4233"/>
<path fill-rule="evenodd" clip-rule="evenodd" d="M16.0514 3.61482C15.8822 4.11342 16.0598 4.6124 16.0498 5.11106C16.0473 5.9658 16.0447 6.82065 16.0422 7.6755C15.9987 7.65392 15.9553 7.63231 15.9118 7.61079C15.908 6.31289 15.9032 5.01492 15.9028 3.71695C15.9027 3.63547 15.8438 3.41724 16.0514 3.61482Z" fill="#C01B28"/>
<path fill-rule="evenodd" clip-rule="evenodd" d="M10.3834 26.9405C10.2334 26.9436 10.0833 26.9468 9.93333 26.9499C9.87092 26.9269 9.81003 26.8975 9.74578 26.882C9.26795 26.7666 9.24734 26.7333 9.41792 26.3316C9.43859 26.3242 9.4598 26.3188 9.48156 26.3156C9.68952 26.3233 9.89746 26.3309 10.1054 26.3385C10.1154 26.5774 10.3098 26.731 10.3834 26.9405Z" fill="#F66056"/>
<path fill-rule="evenodd" clip-rule="evenodd" d="M8.59042 24.3681C8.59157 24.6025 8.76887 24.5321 8.89032 24.5327C9.79553 24.5372 10.7008 24.5342 11.606 24.5382C11.7276 24.5388 11.86 24.4975 11.9685 24.5943C10.8412 24.5995 9.71382 24.6046 8.58647 24.6097C8.54067 24.6037 8.49488 24.5977 8.44918 24.5916C8.35122 24.4249 8.43865 24.376 8.59042 24.3681Z" fill="#FC8C2C"/>
<path fill-rule="evenodd" clip-rule="evenodd" d="M18.7676 4.98877C19.1936 5.02284 19.6196 5.05688 20.0456 5.09095C19.61 5.1779 19.1796 5.1993 18.7676 4.98877Z" fill="#DA4739"/>
<path fill-rule="evenodd" clip-rule="evenodd" d="M9.12915 24.3645C8.99562 24.4485 8.8629 24.4517 8.7312 24.3579C8.86433 24.3149 8.99696 24.3183 9.12915 24.3645Z" fill="#FC8C2C"/>
<path fill-rule="evenodd" clip-rule="evenodd" d="M16.7835 10.484C16.6914 10.5343 16.6736 10.4737 16.6627 10.403C16.7251 10.3971 16.7836 10.3969 16.7835 10.484Z" fill="#EC4233"/>
<path fill-rule="evenodd" clip-rule="evenodd" d="M9.48016 26.3344C9.4584 26.3387 9.43716 26.3458 9.41646 26.3555C9.3904 26.3281 9.3643 26.3007 9.3382 26.2732C9.3382 26.2732 9.35216 26.2554 9.35214 26.2554C9.3948 26.2818 9.43748 26.3081 9.48016 26.3344Z" fill="#C01B28"/>
<path fill-rule="evenodd" clip-rule="evenodd" d="M9.34344 26.2691C9.27282 26.2521 9.26009 26.1996 9.25793 26.1407C9.25791 26.1407 9.28343 26.1212 9.28342 26.1212C9.30828 26.1659 9.33315 26.2107 9.35802 26.2555L9.34344 26.2691Z" fill="#C01B28"/>
<path fill-rule="evenodd" clip-rule="evenodd" d="M22.2348 21.7993C22.2015 21.7659 22.1681 21.7326 22.1348 21.6992C22.1681 21.7326 22.2015 21.7659 22.2348 21.7993Z" fill="#F5F3EE"/>
<path fill-rule="evenodd" clip-rule="evenodd" d="M10.3826 26.9398C10.3089 26.7304 10.1144 26.5767 10.1045 26.3377C10.1055 26.314 10.1065 26.2903 10.1075 26.2666C10.6127 26.2298 11.1126 26.3122 11.6152 26.3294C12.021 26.3433 12.0909 26.2477 12.1098 25.8553C12.1249 25.5397 11.9608 25.1349 12.1888 24.9328C12.3926 24.7521 12.7836 24.8804 13.0915 24.88C15.3418 24.877 17.592 24.88 19.8422 24.881C19.843 25.1913 19.8553 25.502 19.8409 25.8116C19.8291 26.0646 19.9091 26.2578 20.1206 26.3961C19.875 26.6219 19.888 26.6653 20.1762 26.8353C20.2945 26.9051 20.454 26.8255 20.5423 26.9606C20.5225 27.6057 20.6093 28.2582 20.4072 28.8906C20.2544 29.0469 20.2506 29.2426 20.262 29.4422L20.262 29.4428C20.0105 29.7689 19.9659 30.148 19.9806 30.5422C19.9699 31.0469 19.9486 31.5538 20.2695 31.9924C19.8622 32.2461 19.8562 32.2681 20.119 32.5428C20.0934 32.6591 19.9616 32.6711 19.907 32.7588C19.8868 32.7807 19.8666 32.8025 19.8465 32.8244C19.8465 32.8244 19.8417 32.8254 19.8417 32.8254C19.8196 32.8252 19.798 32.8282 19.7767 32.8342C19.7274 32.8358 19.6781 32.8373 19.6288 32.8388C19.1055 32.7849 18.575 32.9026 18.0547 32.7731C18.0547 32.7731 18.0397 32.7472 18.0398 32.7473C18.0869 32.427 18.1787 32.1039 17.9848 31.7974C17.679 31.3708 17.63 30.9606 17.9445 30.4901C18.0836 30.2821 17.9396 29.9909 17.7876 29.7846C17.6405 29.5851 17.5956 29.4001 17.6623 29.1536C17.779 28.7223 17.6316 28.355 17.2737 28.0955C16.758 27.7217 16.2263 27.37 15.8356 26.852C15.7228 26.7025 15.6193 26.7712 15.5296 26.8826C15.3213 27.141 15.1045 27.3898 14.8309 27.5835C14.5623 27.7737 14.2947 27.9658 14.0316 28.1636C13.7461 28.3783 13.632 28.6847 13.7204 29.0145C13.8182 29.3789 13.7402 29.6657 13.4955 29.9286C13.4289 29.8853 13.3457 29.8555 13.2981 29.7967C12.7359 29.1031 12.1763 28.4074 11.6241 27.7058C11.5509 27.6129 11.4773 27.5701 11.3669 27.5734C11.3677 27.4494 11.3519 27.3225 11.3726 27.202C11.4138 26.9621 11.3314 26.8922 11.0943 26.9325C10.9058 26.9645 10.7101 26.9543 10.5177 26.9629C10.4726 26.9552 10.4276 26.9475 10.3826 26.9398Z" fill="#C50000"/>
<path fill-rule="evenodd" clip-rule="evenodd" d="M17.1031 32.8272C17.0501 32.8302 16.9972 32.8333 16.9442 32.8362C16.5312 32.7764 16.1059 32.9061 15.6986 32.7562C15.5097 32.3459 15.1435 32.0724 14.8912 31.71C14.7318 31.4811 14.5812 31.2362 14.3202 31.099C14.3023 31.0961 14.2843 31.0937 14.2663 31.0918C14.2592 30.8195 14.2522 30.5472 14.2451 30.2748C14.2755 29.5713 14.5778 29.0056 15.0991 28.5403C15.3021 28.3591 15.4763 28.1457 15.6635 27.947C15.8473 28.1465 16.0334 28.3439 16.2142 28.546C16.5313 28.9004 16.9067 29.2084 17.0429 29.6998C17.1026 29.9149 17.0575 30.135 17.1225 30.3444C17.0673 31.1715 17.1039 31.9995 17.1031 32.8272Z" fill="#C01B28"/>
<path fill-rule="evenodd" clip-rule="evenodd" d="M11.3669 27.5744C11.4772 27.5711 11.5509 27.6139 11.624 27.7068C12.1762 28.4084 12.7359 29.1041 13.2981 29.7977C13.3456 29.8565 13.4288 29.8863 13.4955 29.9296C13.4961 29.9735 13.4966 30.0173 13.4971 30.0612C13.3143 30.3931 13.4722 30.6718 13.646 30.9396C13.7442 31.091 13.7651 31.1959 13.6326 31.3555C13.4357 31.5928 13.3071 31.8761 13.3458 32.2042C13.2859 32.2493 13.2801 32.2948 13.3448 32.3407C13.3461 32.4115 13.3475 32.4823 13.3488 32.5531C13.28 32.6657 13.2113 32.7783 13.1425 32.8908C12.8684 32.8895 12.5943 32.8882 12.3201 32.887C12.2626 32.7794 12.1683 32.7521 12.0551 32.7654C11.9418 32.6995 11.8422 32.6033 11.6985 32.6059C12.0137 32.2514 12.0137 32.2514 11.6857 31.9976C11.6959 31.9416 11.6891 31.8734 11.7191 31.8316C12.0323 31.3952 12.0102 30.9158 11.9027 30.4277C11.801 29.9655 11.6686 29.5125 11.5318 29.0588C11.3904 28.5901 11.4149 28.0713 11.3669 27.5744Z" fill="#FF0000"/>
<path fill-rule="evenodd" clip-rule="evenodd" d="M13.3492 32.5525C13.3479 32.4817 13.3466 32.4109 13.3453 32.3401C13.3456 32.2947 13.3459 32.2491 13.3462 32.2036C13.3075 31.8755 13.4361 31.5922 13.633 31.3548C13.7653 31.1953 13.7444 31.0904 13.6463 30.939C13.4726 30.6712 13.3148 30.3924 13.4974 30.0605C13.7449 30.2623 13.8706 30.5784 14.1526 30.7562C14.2418 30.6063 14.1084 30.4134 14.2445 30.2756C14.2515 30.548 14.2585 30.8203 14.2655 31.0926C14.2643 31.6908 14.2632 32.289 14.262 32.8871C13.9679 32.7484 13.6514 32.9642 13.357 32.8296C13.3544 32.7372 13.3518 32.6449 13.3492 32.5525Z" fill="#FFC300"/>
<path fill-rule="evenodd" clip-rule="evenodd" d="M14.2629 32.887C14.264 32.2889 14.2652 31.6907 14.2664 31.0926C14.2845 31.0944 14.3025 31.0968 14.3203 31.0997C14.3202 31.5487 14.334 31.9983 14.315 32.4465C14.3023 32.7448 14.4413 32.8439 14.7064 32.8243C15.0371 32.7998 15.3642 32.725 15.6987 32.7569C16.1061 32.9068 16.5313 32.7771 16.9444 32.8369C16.8242 32.9364 16.6816 32.8897 16.5498 32.8902C15.7875 32.8932 15.0252 32.8889 14.2629 32.887Z" fill="#EE472B"/>
<path fill-rule="evenodd" clip-rule="evenodd" d="M17.1025 32.8275C17.1032 31.9998 17.0666 31.1719 17.1219 30.3447C17.3293 30.5746 17.2527 30.8803 17.2409 31.1199C17.2155 31.6366 17.2448 32.1525 17.2152 32.6675C17.2115 32.7311 17.2947 32.8851 17.1025 32.8275Z" fill="#FC8C2C"/>
<path fill-rule="evenodd" clip-rule="evenodd" d="M17.9851 31.7979C18.1795 32.1043 18.0874 32.4274 18.0402 32.7478C17.916 32.4372 18.0055 32.1143 17.9851 31.7979Z" fill="#FC8C2C"/>
<path fill-rule="evenodd" clip-rule="evenodd" d="M20.1218 26.3972C19.9103 26.2589 19.8304 26.0657 19.8421 25.8126C19.8565 25.5031 19.8442 25.1923 19.8435 24.8821C20.1638 24.8816 20.4843 24.8856 20.8045 24.8788C21.0002 24.8746 21.0788 24.8808 21.0104 25.1404C20.9034 25.5463 20.5878 25.8779 20.6076 26.3222C20.4456 26.3473 20.2837 26.3722 20.1218 26.3972Z" fill="#DD2A16"/>
<path fill-rule="evenodd" clip-rule="evenodd" d="M10.1083 26.2679C10.1072 26.2915 10.1062 26.3152 10.1052 26.339C9.89726 26.3314 9.68932 26.3238 9.48136 26.3162C9.43872 26.296 9.3961 26.2759 9.3535 26.2558C9.32972 26.211 9.30592 26.1663 9.28213 26.1216C9.28071 25.8223 9.27929 25.5231 9.27784 25.2238C9.2767 24.9874 9.37017 24.8521 9.63044 24.8787C9.73288 24.8892 9.83758 24.8755 9.94073 24.8816C10.0923 24.8907 10.3123 24.8176 10.3401 25.0374C10.3641 25.227 10.3793 25.4295 10.152 25.5921C9.92481 25.7547 10.0127 26.033 10.1083 26.2679Z" fill="#DD2A16"/>
<path fill-rule="evenodd" clip-rule="evenodd" d="M8.58606 24.6087C9.71342 24.6036 10.8408 24.5985 11.9681 24.5933C12.0623 24.5938 12.1566 24.5943 12.2507 24.5949C15.9756 24.5965 19.7004 24.598 23.4253 24.5996C23.316 24.7308 23.167 24.6693 23.0375 24.6694C18.4159 24.673 13.7943 24.6746 9.17274 24.6654C8.98101 24.665 8.76237 24.8074 8.58606 24.6087Z" fill="#DD2A16"/>
<path fill-rule="evenodd" clip-rule="evenodd" d="M23.4249 24.631C19.7 24.6287 15.9752 24.6265 12.2504 24.6242C12.334 24.4929 12.4437 24.5384 12.5435 24.5384C16.1774 24.5373 19.8114 24.5386 23.4455 24.5396C23.4405 24.571 23.4337 24.6015 23.4249 24.631Z" fill="#FC8C2C"/>
<path fill-rule="evenodd" clip-rule="evenodd" d="M20.1214 26.3969C20.2833 26.372 20.4452 26.347 20.6072 26.322C20.6504 26.3276 20.6937 26.3333 20.7368 26.339C20.7274 26.538 20.9436 26.6771 20.8823 26.8896C20.7856 26.9913 20.6547 26.9313 20.5429 26.9614C20.4547 26.8263 20.2952 26.9059 20.177 26.8361C19.8889 26.6661 19.8759 26.6227 20.1214 26.3969Z" fill="#FA5E53"/>
<path fill-rule="evenodd" clip-rule="evenodd" d="M19.9737 20.0446C19.9077 20.0441 19.8417 20.0436 19.7757 20.0431C19.871 19.7913 19.8356 19.5269 19.851 19.2673C19.9418 19.5184 20.0003 19.7748 19.9737 20.0446Z" fill="#FC8C2C"/>
<path fill-rule="evenodd" clip-rule="evenodd" d="M19.7857 18.7167C19.9214 18.8714 19.8459 19.0497 19.8702 19.2169C19.6969 19.0665 19.8054 18.8844 19.7857 18.7167Z" fill="#FC8C2C"/>
<path fill-rule="evenodd" clip-rule="evenodd" d="M21.6739 22.8425C21.6739 22.8425 21.6771 22.8459 21.6773 22.8461C21.5735 22.8599 21.4695 22.8736 21.3656 22.8872C21.1821 22.8836 20.9987 22.8801 20.8153 22.8765C20.9385 22.6739 20.9359 22.5198 20.6702 22.439C20.5763 22.4104 20.4951 22.3398 20.4082 22.2883C20.3662 21.8201 20.6406 21.2729 21.0154 21.0769C20.854 21.7528 21.3078 22.2349 21.5558 22.781C21.5703 22.8128 21.6334 22.8225 21.6739 22.8425Z" fill="#FFC300"/>
<path fill-rule="evenodd" clip-rule="evenodd" d="M20.4081 22.2872C20.4951 22.3386 20.5762 22.4092 20.6701 22.4378C20.9358 22.5186 20.9385 22.6727 20.8152 22.8754C20.6162 22.8165 20.3766 23.1002 20.2059 22.803C20.1998 22.6876 20.1937 22.5722 20.1876 22.4569C20.1968 22.4359 20.2073 22.4157 20.2193 22.3962C20.3017 22.3935 20.3799 22.3837 20.4081 22.2872Z" fill="#C01B28"/>
<path fill-rule="evenodd" clip-rule="evenodd" d="M21.3697 20.7269C21.2518 20.844 21.1338 20.9611 21.0159 21.0782C20.9828 20.9508 21.0949 20.86 21.1012 20.7427C21.1951 20.8114 21.2638 20.4564 21.3697 20.7269Z" fill="#FBAE34"/>
<path fill-rule="evenodd" clip-rule="evenodd" d="M14.1814 13.6816C14.0961 14.9432 14.1894 16.22 13.8416 17.4596C13.7517 17.7802 13.6512 18.0959 13.5067 18.3929C13.4197 18.5716 13.3588 18.7491 13.34 18.9438C13.1892 18.9593 13.1705 19.0815 13.1518 19.1922C13.1196 19.3824 13.0993 19.5747 13.0741 19.766C12.8904 19.8121 12.7067 19.8582 12.5231 19.9042C12.5599 18.6783 12.8143 17.4893 13.1345 16.3119C13.2447 15.9067 13.3004 15.489 13.4784 15.0992C13.6708 14.6777 13.8211 14.237 13.991 13.8051C14.0243 13.7203 14.0961 13.6891 14.1814 13.6816Z" fill="#F99204"/>
<path fill-rule="evenodd" clip-rule="evenodd" d="M13.3444 22.0381C13.477 22.5055 13.8142 22.8703 13.9853 23.319C14.059 23.5123 14.1396 23.7014 14.1008 23.9152C13.4567 23.9019 12.8075 23.9594 12.176 23.7742C12.1126 22.8703 12.2393 21.9764 12.3162 21.0799C12.4533 21.0645 12.606 21.0771 12.6983 21.161C12.8463 21.2953 12.951 21.1815 13.0737 21.1493C13.0803 21.2249 13.0608 21.3105 13.1519 21.3539C13.1525 21.3987 13.1531 21.4436 13.1536 21.4885C13.1907 21.6809 13.0038 21.9513 13.3444 22.0381Z" fill="#F99204"/>
<path fill-rule="evenodd" clip-rule="evenodd" d="M10.2429 24.3247C9.98636 23.5227 9.9866 23.523 10.7065 22.9853C10.7416 22.959 10.7661 22.9184 10.7956 22.8843C10.8231 22.8796 10.8504 22.8749 10.8778 22.8701C11.1521 22.8923 11.4263 22.9144 11.7006 22.9365C12.0001 23.0244 12.1029 23.2417 12.0992 23.5341C12.0976 23.6597 12.1087 23.7855 12.1141 23.9112C12.0361 24.1211 12.0543 24.4253 11.685 24.3493C11.5075 24.3493 11.3299 24.3494 11.1523 24.3495C10.8702 24.3485 10.5881 24.3475 10.306 24.3464C10.2863 24.3354 10.2653 24.3282 10.2429 24.3247Z" fill="#C01B28"/>
<path fill-rule="evenodd" clip-rule="evenodd" d="M11.7 22.9359C11.4258 22.9138 11.1515 22.8917 10.8771 22.8695C10.8734 22.8513 10.8731 22.8329 10.8758 22.8145C11.0918 22.7396 11.0892 22.4699 11.304 22.3666C11.6001 22.2243 11.6292 21.9495 11.4274 21.6751C11.3066 21.5109 11.1529 21.3668 11.1307 21.1476L11.1468 21.1471C11.3722 21.1149 11.5972 21.2683 11.8227 21.1483C11.8448 21.7485 11.7015 22.3374 11.7 22.9359Z" fill="#FA5E53"/>
<path fill-rule="evenodd" clip-rule="evenodd" d="M12.8754 20.0295C12.8421 20.0214 12.8087 20.0134 12.7754 20.0054C12.7909 20.0409 12.8056 20.1013 12.8222 20.1053C12.839 20.1092 12.8576 20.058 12.8754 20.0295ZM13.0751 21.1478C12.9524 21.1799 12.8477 21.2938 12.6997 21.1594C12.6074 21.0755 12.4547 21.0629 12.3176 21.0783C12.4091 20.6907 12.3672 20.2797 12.523 19.9034C12.7067 19.8573 12.8903 19.8112 13.0741 19.7652C13.074 19.9724 13.0739 20.1796 13.0737 20.3867C12.9653 20.3185 13.0399 20.19 12.9825 20.1041C12.5332 20.5452 12.5434 20.6346 13.0683 20.87C13.0706 20.9626 13.0729 21.0552 13.0751 21.1478Z" fill="#F89109"/>
<path fill-rule="evenodd" clip-rule="evenodd" d="M10.726 20.7412C10.7712 20.7387 10.8164 20.7362 10.8616 20.7337C10.9564 20.8717 11.0512 21.0096 11.146 21.1475C11.146 21.1475 11.13 21.1479 11.1301 21.1479C10.8526 21.1546 10.8122 20.9251 10.726 20.7412Z" fill="#FC8C2C"/>
<path fill-rule="evenodd" clip-rule="evenodd" d="M20.5427 26.9611C20.6545 26.9311 20.7854 26.991 20.8821 26.8894C20.9578 26.8945 21.0389 26.8841 21.0891 26.9623C21.3449 27.5362 21.0584 28.0489 20.8919 28.5682C20.8185 28.7971 20.7128 29.0232 20.6887 29.2583C20.6468 29.6668 20.6328 30.0613 20.9638 30.4155C21.35 30.8289 21.5639 31.3344 21.3606 31.9256C21.2243 31.9508 21.0881 31.976 20.9518 32.0013C20.7245 31.9984 20.4972 31.9957 20.27 31.9929C19.9492 31.5543 19.9705 31.0475 19.9812 30.5428C20.0927 30.1809 20.2072 29.8197 20.2625 29.4434C20.2625 29.4434 20.2625 29.4428 20.2625 29.4428C20.3862 29.2787 20.4019 29.0862 20.4077 28.8911C20.6097 28.2588 20.5229 27.6062 20.5427 26.9611Z" fill="#FFC300"/>
<path fill-rule="evenodd" clip-rule="evenodd" d="M16.2537 23.7065C17.0267 23.6741 17.7576 23.4473 18.4839 23.2093C18.9156 23.0679 19.337 22.8948 19.7632 22.736C19.773 22.9412 19.7826 23.1462 19.7923 23.3513C19.81 23.6743 19.8278 23.9973 19.8456 24.3203C18.0318 24.3247 16.2181 24.3283 14.4044 24.3342C14.0623 24.3353 14.1261 24.121 14.1717 23.9126C14.873 23.9185 15.5701 23.8819 16.2536 23.7069C16.2536 23.7069 16.2537 23.7065 16.2537 23.7065Z" fill="#C01B28"/>
<path fill-rule="evenodd" clip-rule="evenodd" d="M19.8457 24.3204C19.8279 23.9974 19.8101 23.6744 19.7922 23.3515C19.9569 23.1893 20.1279 23.0318 20.2051 22.8035C20.3758 23.1006 20.6154 22.8169 20.8144 22.8758C20.9979 22.8793 21.1813 22.8829 21.3648 22.8865C21.2901 23.0648 21.1231 23.1436 20.9775 23.2446C20.6195 23.4928 20.5757 23.6794 20.8035 24.0709C20.8514 24.1531 20.8843 24.2308 20.8821 24.3242C20.5366 24.3229 20.1911 24.3217 19.8457 24.3204Z" fill="#EF412B"/>
<path fill-rule="evenodd" clip-rule="evenodd" d="M11.1517 24.3499C11.3293 24.3497 11.5069 24.3496 11.6844 24.3496C11.5068 24.4833 11.3292 24.4831 11.1517 24.3499Z" fill="#FC8C2C"/>
<path fill-rule="evenodd" clip-rule="evenodd" d="M10.2423 24.3247C10.2646 24.3292 10.2857 24.3385 10.3054 24.3528C10.1932 24.4464 10.0826 24.4543 9.97406 24.3434C10.0635 24.3372 10.1529 24.331 10.2423 24.3247Z" fill="#FC8C2C"/>
<path fill-rule="evenodd" clip-rule="evenodd" d="M9.35065 24.3419C9.39398 24.3418 9.43732 24.3417 9.4806 24.342C9.43715 24.4751 9.39386 24.4753 9.35065 24.3419Z" fill="#FC8C2C"/>
<path fill-rule="evenodd" clip-rule="evenodd" d="M11.3677 27.5737C11.4158 28.0706 11.3912 28.5894 11.5326 29.0581C11.6693 29.5118 11.8017 29.9648 11.9034 30.427C12.0108 30.9151 12.0329 31.3945 11.7198 31.8309C11.6898 31.8727 11.6967 31.9409 11.6865 31.9969C11.3655 32.0225 11.05 31.9723 10.7341 31.9275C10.7286 31.8245 10.7445 31.7259 10.7657 31.6236C10.8331 31.2975 10.7916 31.0038 10.5494 30.7348C10.3463 30.5092 10.2011 30.2319 10.024 29.9819C9.94075 29.8643 9.9656 29.7423 9.98784 29.6203C10.0779 29.1259 10.219 28.648 10.416 28.1837C10.5816 27.7933 10.6286 27.382 10.5187 26.9631C10.7111 26.9546 10.9067 26.9648 11.0952 26.9328C11.3322 26.8926 11.4145 26.9624 11.3734 27.2023C11.3527 27.3229 11.3684 27.4497 11.3677 27.5737Z" fill="#F99204"/>
<path fill-rule="evenodd" clip-rule="evenodd" d="M10.7338 31.9269C11.0497 31.9717 11.3653 32.0219 11.6862 31.9962C12.0141 32.2501 12.0141 32.2501 11.699 32.6047C11.2811 32.6073 10.8633 32.6098 10.4454 32.6123C10.4956 32.3916 10.5457 32.1708 10.5959 31.9503C10.6419 31.9427 10.6878 31.9348 10.7338 31.9269Z" fill="#EF412B"/>
<path fill-rule="evenodd" clip-rule="evenodd" d="M21.6963 21.1517C21.4814 21.1956 21.5055 21.0595 21.5265 20.9258C21.6403 20.9582 21.6621 21.0596 21.6963 21.1517Z" fill="#FBAE34"/>
<path fill-rule="evenodd" clip-rule="evenodd" d="M21.5345 20.9184C21.4472 20.9168 21.4343 20.8656 21.4344 20.8057C21.5 20.8218 21.5324 20.8601 21.5345 20.9184Z" fill="#FBAE34"/>
<path fill-rule="evenodd" clip-rule="evenodd" d="M10.8752 22.8156C10.8725 22.8341 10.8729 22.8524 10.8765 22.8707C10.8493 22.8754 10.8219 22.8802 10.7945 22.8849C10.6 22.8753 10.4056 22.8656 10.2111 22.8559C10.2548 22.6966 10.2855 22.545 10.0836 22.4616C9.76878 22.3315 9.68971 22.0875 9.76457 21.7741C9.88585 21.6561 9.98299 21.5217 10.0445 21.363C10.1615 21.3207 10.1497 21.1468 10.2872 21.1255C10.3701 21.2342 10.3802 21.3432 10.3339 21.478C10.2944 21.5933 10.2751 21.7393 10.3637 21.8408C10.6129 22.1265 10.7661 22.4585 10.8752 22.8156Z" fill="#FFC300"/>
<path fill-rule="evenodd" clip-rule="evenodd" d="M21.7408 22.5338C21.7219 22.6123 21.703 22.6908 21.6843 22.7693C21.6341 22.6811 21.6002 22.5953 21.7408 22.5338Z" fill="#FBAE34"/>
<path fill-rule="evenodd" clip-rule="evenodd" d="M10.8748 22.8149C10.7657 22.4577 10.6124 22.1258 10.3632 21.8401C10.2746 21.7385 10.294 21.5926 10.3335 21.4773C10.3797 21.3424 10.3696 21.2335 10.2867 21.1248C10.3483 20.9655 10.4571 20.8408 10.5793 20.7261C10.626 20.7293 10.6728 20.7324 10.7195 20.7356C10.7195 20.7356 10.7256 20.7413 10.7257 20.7413C10.8119 20.9252 10.8523 21.1547 11.1298 21.1481C11.1519 21.3672 11.3056 21.5113 11.4263 21.6755C11.6281 21.95 11.5991 22.2247 11.303 22.3671C11.0882 22.4703 11.0907 22.74 10.8748 22.8149Z" fill="#F79507"/>
<path fill-rule="evenodd" clip-rule="evenodd" d="M10.7203 20.738C10.6735 20.7348 10.6267 20.7316 10.5799 20.7283C10.5851 20.6812 10.5984 20.6331 10.6536 20.6383C10.7046 20.6431 10.7216 20.688 10.7203 20.738Z" fill="#FC8C2C"/>
<path fill-rule="evenodd" clip-rule="evenodd" d="M20.2702 31.9924C20.4975 31.9952 20.7248 31.998 20.9521 32.0008C21.3777 32.1217 21.0988 32.3974 21.0867 32.6144C20.7616 32.629 20.4376 32.6284 20.1199 32.5429C19.8572 32.2682 19.8631 32.2462 20.2702 31.9924Z" fill="#FA5E53"/>
<path fill-rule="evenodd" clip-rule="evenodd" d="M20.2638 29.4434C20.2084 29.8197 20.0936 30.1809 19.9817 30.5428C19.967 30.1485 20.0118 29.7694 20.2638 29.4434Z" fill="#EE472B"/>
<path fill-rule="evenodd" clip-rule="evenodd" d="M20.4093 28.8901C20.4035 29.0853 20.3878 29.2778 20.2637 29.4418C20.2523 29.2422 20.2561 29.0465 20.4093 28.8901Z" fill="#EE472B"/>
<path fill-rule="evenodd" clip-rule="evenodd" d="M15.6984 32.7573C15.364 32.7254 15.037 32.8002 14.7064 32.8247C14.4414 32.8443 14.3025 32.7452 14.3151 32.4469C14.3341 31.9987 14.3203 31.5491 14.3205 31.1001C14.5814 31.2373 14.732 31.4822 14.8913 31.7111C15.1436 32.0735 15.5096 32.347 15.6984 32.7573Z" fill="#FF0000"/>
<path fill-rule="evenodd" clip-rule="evenodd" d="M14.4458 19.4905C14.7566 18.5523 15.0927 17.6264 15.5258 16.7336C15.7013 16.3717 15.7426 15.9444 15.8418 15.5461C15.8638 15.4574 15.8712 15.3271 15.9625 15.3229C16.0877 15.3172 16.0851 15.4561 16.1108 15.5528C16.2535 16.0912 16.4296 16.6152 16.6323 17.1374C16.9418 17.9346 17.3364 18.7066 17.493 19.5596C17.378 19.5751 17.2478 19.5148 17.1521 19.6278C17.1521 19.6278 17.1496 19.6302 17.1496 19.6302C17.1042 19.6982 17.0589 19.7663 17.0135 19.8344C16.9707 19.767 16.9252 19.7592 16.8761 19.828L16.748 19.7637C16.6641 19.6362 16.5435 19.5518 16.4213 19.4636C16.1144 19.2423 16.1166 19.0973 16.4228 18.8536C16.6215 18.6955 16.7831 18.5144 16.7298 18.2419C16.6252 17.7076 16.3646 17.2306 16.1418 16.7416C16.0678 16.5792 15.9516 16.5555 15.8556 16.7517C15.7042 17.0614 15.5691 17.3766 15.4471 17.6997C15.2162 18.3111 15.2317 18.4229 15.7044 18.8713C15.7857 19.1569 15.5328 19.2909 15.4241 19.4903L15.4237 19.4906C15.2059 19.483 15.075 19.628 14.9358 19.7633C14.8434 19.853 14.7304 19.9076 14.5982 19.8687C14.4374 19.8214 14.4571 19.6832 14.4559 19.5583C14.4546 19.5354 14.4512 19.5128 14.4458 19.4905Z" fill="#F89109"/>
<path fill-rule="evenodd" clip-rule="evenodd" d="M17.7679 20.3979C17.7708 20.6495 17.7737 20.9013 17.7765 21.153C17.775 21.4174 17.7728 21.6818 17.7722 21.9462C17.7704 22.6368 17.3389 23.2153 16.6674 23.4262C16.6659 23.3807 16.6643 23.3351 16.6628 23.2895C16.936 22.9616 17.1564 22.605 17.2167 22.1739C17.3107 21.5014 16.9664 21.0425 16.4628 20.6662C16.4337 20.4647 16.4734 20.2924 16.6669 20.1854C16.6909 20.1823 16.715 20.1793 16.7391 20.1762C16.8065 20.1753 16.8738 20.1745 16.9412 20.1737C16.9582 20.183 16.9752 20.1923 16.9923 20.2016C16.9968 20.1702 17.0013 20.1388 17.0059 20.1073C17.0057 20.0843 17.0073 20.0613 17.0105 20.0385C17.0572 20.0291 17.1186 20.224 17.147 20.0357C17.167 19.9033 17.1502 19.7654 17.1499 19.6299C17.1499 19.6299 17.1524 19.6274 17.1524 19.6274C17.2428 19.6316 17.3427 19.6256 17.3529 19.7527C17.3641 19.8927 17.4573 19.9082 17.567 19.9044C17.6112 19.997 17.6554 20.0895 17.6995 20.182C17.702 20.2605 17.6879 20.3441 17.7679 20.3979Z" fill="#F89109"/>
<path fill-rule="evenodd" clip-rule="evenodd" d="M14.2407 21.0699C14.2415 21.0069 14.2423 20.9439 14.2432 20.8809C14.2817 20.7874 14.3724 20.6963 14.2561 20.5958C14.257 20.5262 14.2579 20.4566 14.2587 20.3871C14.3371 20.3262 14.4322 20.1497 14.4584 20.4207C14.4761 20.6022 14.5055 20.7825 14.5262 20.9638C14.5355 21.046 14.5375 21.1288 14.6466 21.1403C14.7632 21.1526 14.8294 21.0722 14.8394 20.9828C14.872 20.692 14.9389 20.3965 14.8029 20.1117C14.8023 20.0878 14.8017 20.064 14.8011 20.0402C14.8955 19.9149 14.9878 20.0136 15.0807 20.043C15.1371 20.0814 15.189 20.1299 15.2505 20.1565C15.7083 20.3543 15.7123 20.3994 15.3518 20.75C14.92 21.1698 14.752 21.6552 14.8954 22.2725C14.9881 22.6717 15.2458 22.9503 15.4307 23.2823C15.3593 23.3902 15.247 23.3504 15.1486 23.3605C15.103 23.3586 15.0575 23.3567 15.0119 23.3548C14.6647 23.0387 14.2573 22.7677 14.1857 22.246C14.3228 21.8596 14.2207 21.4619 14.2407 21.0699Z" fill="#F89109"/>
<path fill-rule="evenodd" clip-rule="evenodd" d="M20.2182 22.3969C20.1648 21.704 20.1113 21.011 20.0579 20.3181C20.034 20.3169 19.9332 19.8786 19.9094 19.8774C19.5247 19.363 19.7182 20.4414 19.9835 21.4256C19.9646 21.8757 19.9788 22.1772 20.1866 22.4576C20.1957 22.4366 20.2062 22.4164 20.2182 22.3969Z" fill="#F89109"/>
<path fill-rule="evenodd" clip-rule="evenodd" d="M19.5916 19.9678C19.6168 20.0027 19.6456 20.036 19.6779 20.0679C19.6456 20.036 19.6168 20.0027 19.5916 19.9678ZM19.7757 20.1096C19.6766 20.1045 19.6246 20.0638 19.5967 20.0001C19.6246 20.0638 19.6766 20.1045 19.7757 20.1096C19.7761 20.0871 19.7765 20.0645 19.7767 20.042C19.8718 19.7902 19.8364 19.5259 19.8518 19.2662C19.8574 19.2497 19.8575 19.2333 19.852 19.2168C19.7109 19.0663 19.7992 18.8842 19.7832 18.7165C19.6929 17.5137 19.4344 16.3412 19.1308 15.1783C18.963 14.5354 18.7795 13.896 18.5108 13.285C18.4798 13.2145 18.4804 13.1302 18.4663 13.0523C18.0868 12.3642 17.7115 11.6732 17.1232 11.1314C16.5133 11.2249 15.8982 11.1901 15.2851 11.2065C15.1507 11.5493 14.9262 11.8379 14.7266 12.1417C14.5293 12.442 14.3946 12.7654 14.3883 13.1318C14.6162 12.9257 14.823 12.6878 15.076 12.5195C15.902 11.9702 16.8233 12.2041 17.4831 13.106C18.234 14.1325 18.5723 15.326 18.8797 16.5346C19.1105 17.4422 19.2336 18.3703 19.4306 19.2841V19.2841C19.4303 19.4924 19.43 19.7007 19.4297 19.9089C19.4306 19.9269 19.4302 19.9448 19.4285 19.9626C19.5105 20.0161 19.5002 20.0989 19.4974 20.1794C19.4994 20.2007 19.5002 20.222 19.4997 20.2433C19.6113 20.5328 19.5099 20.8542 19.6338 21.1419C19.6655 21.0113 19.6972 20.8807 19.7289 20.7501C19.6972 20.8807 19.6655 21.0113 19.6339 21.142C19.6774 21.6732 19.7208 22.2043 19.7644 22.7355C19.7742 22.9406 19.7838 23.1457 19.7933 23.3508C19.958 23.1887 20.1291 23.0311 20.2063 22.8028C20.2002 22.6874 20.1941 22.572 20.1881 22.4567" fill="#F89109"/>
<path fill-rule="evenodd" clip-rule="evenodd" d="M15.3561 13.5518C15.1654 13.3321 15.3141 13.0759 15.2878 12.8385C15.2828 12.7936 15.3789 12.7988 15.4199 12.8555C15.4205 12.9577 15.4293 13.0606 15.4198 13.1618C15.4011 13.3596 15.4921 13.4144 15.6785 13.4139C15.8648 13.4134 15.9177 13.3299 15.9066 13.1646C15.8998 13.0628 15.9008 12.9605 15.8983 12.8584C16.1067 12.7108 16.3452 12.775 16.5616 12.8002C16.7093 12.8174 16.6236 12.8974 16.5319 12.9241C16.5067 12.8806 16.4812 12.8814 16.4555 12.9236L16.4233 12.9216C16.4233 12.9216 16.3911 12.9236 16.3911 12.9236C16.2722 12.9701 16.051 12.7401 16.0365 13.0853C16.0242 13.3788 16.1526 13.4352 16.3946 13.4092C16.4615 13.402 16.5297 13.4066 16.5973 13.4057C16.7418 13.6137 16.6769 13.851 16.651 14.0652C16.6334 14.2102 16.5526 14.1175 16.5262 14.0309C16.5274 13.9853 16.5308 13.9396 16.5293 13.8941C16.5243 13.7322 16.588 13.5466 16.301 13.5412C16.0354 13.5362 16.0261 13.6858 16.0478 13.8682C16.0773 14.1168 15.9626 14.1933 15.7331 14.1737C15.5858 14.161 15.4367 14.1691 15.2885 14.1679C15.2883 14.1246 15.288 14.0813 15.2878 14.0379C15.4235 14.0359 15.5596 14.0264 15.6948 14.0338C15.894 14.0447 15.9058 13.9237 15.9078 13.7723C15.9098 13.6188 15.8628 13.5355 15.6953 13.5472C15.5826 13.5551 15.4691 13.5507 15.3561 13.5518Z" fill="#FFEE00"/>
<path fill-rule="evenodd" clip-rule="evenodd" d="M15.288 14.1676C15.4363 14.1688 15.5853 14.1607 15.7326 14.1733C15.9621 14.193 16.0769 14.1164 16.0473 13.8679C16.0257 13.6855 16.0349 13.5359 16.3006 13.5409C16.5875 13.5463 16.5238 13.7319 16.5289 13.8937C16.5303 13.9393 16.5269 13.985 16.5258 14.0306C16.3934 13.9435 16.2673 13.9542 16.1541 14.0625C15.933 14.274 15.4761 14.3607 15.232 14.2335C15.2244 14.2295 15.2194 14.2203 15.2132 14.2135C15.2381 14.1982 15.2631 14.1829 15.288 14.1676Z" fill="#EE472B"/>
<path fill-rule="evenodd" clip-rule="evenodd" d="M13.0729 20.3877C13.073 20.1805 13.0731 19.9734 13.0732 19.7662C13.0985 19.5748 13.1188 19.3826 13.1511 19.1923C13.1698 19.0816 13.1886 18.9594 13.3398 18.944C13.3722 19.2296 13.1371 19.4721 13.2078 19.7637C13.1098 19.8705 13.1357 20.0064 13.1492 20.1239C13.1884 20.4639 13.2289 20.8027 13.2116 21.1458C13.1219 21.1952 13.2564 21.3081 13.1526 21.3533C13.0614 21.31 13.0809 21.2244 13.0743 21.1487C13.072 21.0562 13.0697 20.9636 13.0676 20.871C13.0694 20.7099 13.0712 20.5488 13.0729 20.3877Z" fill="#FC8C2C"/>
<path fill-rule="evenodd" clip-rule="evenodd" d="M15.3556 13.5514C15.4687 13.5502 15.5822 13.5546 15.6948 13.5467C15.8623 13.535 15.9094 13.6183 15.9074 13.7719C15.9054 13.9233 15.8936 14.0442 15.6944 14.0333C15.5592 14.0259 15.4231 14.0355 15.2874 14.0375C15.45 13.8952 15.4626 13.7317 15.3556 13.5514Z" fill="#EE472B"/>
<path fill-rule="evenodd" clip-rule="evenodd" d="M15.8979 12.8588C15.9004 12.9609 15.8994 13.0632 15.9062 13.165C15.9173 13.3303 15.8644 13.4138 15.6781 13.4143C15.4917 13.4148 15.4007 13.36 15.4194 13.1622C15.4289 13.061 15.4201 12.9581 15.4195 12.8559C15.5779 13.0235 15.738 12.923 15.8979 12.8588Z" fill="#EE472B"/>
<path fill-rule="evenodd" clip-rule="evenodd" d="M16.5979 13.4055C16.5303 13.4063 16.4622 13.4017 16.3953 13.4089C16.1532 13.4349 16.0248 13.3785 16.0371 13.0851C16.0516 12.7399 16.2728 12.9699 16.3917 12.9233C16.3784 12.9842 16.3122 13.1033 16.377 13.0972C16.6558 13.0713 16.5324 13.3006 16.5979 13.4055Z" fill="#EE472B"/>
<path fill-rule="evenodd" clip-rule="evenodd" d="M15.1481 23.3605C15.2465 23.3504 15.3588 23.3904 15.4301 23.2822C15.8391 23.5301 16.2494 23.5657 16.6614 23.2891C16.6629 23.3348 16.6644 23.3805 16.666 23.4262C16.577 23.5374 16.4192 23.476 16.3212 23.5647C15.9208 23.5506 15.5039 23.6324 15.1481 23.3605Z" fill="#FC8C2C"/>
<path fill-rule="evenodd" clip-rule="evenodd" d="M15.1484 23.3611C15.5042 23.633 15.9212 23.5512 16.3215 23.5653C16.2988 23.6127 16.2761 23.6603 16.2534 23.7078C16.2534 23.7078 16.2534 23.7082 16.2534 23.7082C16.0452 23.6337 15.8281 23.6469 15.6123 23.6323C15.3845 23.6169 15.1229 23.6401 15.0117 23.3555C15.0573 23.3573 15.1028 23.3592 15.1484 23.3611Z" fill="#EE472B"/>
<path fill-rule="evenodd" clip-rule="evenodd" d="M14.2406 21.0698C14.2205 21.4618 14.3229 21.8595 14.1854 22.246C14.1688 21.8522 14.1092 21.4566 14.2406 21.0698Z" fill="#FC8C2C"/>
<path fill-rule="evenodd" clip-rule="evenodd" d="M17.578 19.8402C17.5722 19.8617 17.5683 19.8835 17.5663 19.9057C17.4566 19.9095 17.3633 19.8939 17.3521 19.7536C17.342 19.6261 17.2421 19.6322 17.1517 19.628C17.2473 19.5147 17.3775 19.5752 17.4925 19.5597C17.5938 19.6308 17.5469 19.7475 17.578 19.8402Z" fill="#FC8C2C"/>
<path fill-rule="evenodd" clip-rule="evenodd" d="M13.3455 22.0371C13.004 21.9503 13.1914 21.6799 13.1542 21.4875C13.23 21.6665 13.3474 21.8312 13.3455 22.0371Z" fill="#FC8C2C"/>
<path fill-rule="evenodd" clip-rule="evenodd" d="M14.3142 19.8497C14.2926 19.8471 14.2713 19.8433 14.2501 19.8382C14.2954 19.7108 14.2671 19.5416 14.4468 19.4903C14.4521 19.5126 14.4554 19.5352 14.4568 19.5582C14.3527 19.6277 14.4253 19.7836 14.3142 19.8497Z" fill="#EE472B"/>
<path fill-rule="evenodd" clip-rule="evenodd" d="M14.1748 20.8693C14.1762 20.7708 14.1953 20.6776 14.2561 20.5968C14.3725 20.6974 14.2817 20.7885 14.2432 20.8821C14.2203 20.8779 14.1976 20.8736 14.1748 20.8693Z" fill="#FC8C2C"/>
<path fill-rule="evenodd" clip-rule="evenodd" d="M16.4554 12.9893C16.4891 12.8592 16.5225 12.8564 16.5555 12.991C16.5221 12.9904 16.4888 12.9899 16.4554 12.9893Z" fill="#EE472B"/>
<path fill-rule="evenodd" clip-rule="evenodd" d="M18.8776 19.5903C18.911 19.557 18.9443 19.5236 18.9777 19.4902C18.9443 19.5236 18.911 19.557 18.8776 19.5903Z" fill="#DA4739"/>
<path fill-rule="evenodd" clip-rule="evenodd" d="M13.0739 20.3874C13.0722 20.5485 13.0704 20.7096 13.0686 20.8707C12.5436 20.6352 12.5334 20.5458 12.9827 20.1047C13.0401 20.1906 12.9655 20.3191 13.0739 20.3874Z" fill="#F79507"/>
<path fill-rule="evenodd" clip-rule="evenodd" d="M12.8743 20.0306C12.8565 20.0585 12.8379 20.1098 12.821 20.1058C12.8045 20.1018 12.7898 20.0415 12.7742 20.0059C12.8076 20.0139 12.841 20.022 12.8743 20.0306Z" fill="#F79507"/>
<path fill-rule="evenodd" clip-rule="evenodd" d="M15.4239 19.4905C15.3655 19.7096 15.0562 19.7728 15.0809 20.0434C14.988 20.014 14.8958 19.9154 14.8013 20.0407C14.717 20.0535 14.5522 20.0236 14.5688 20.1057C14.6126 20.3224 14.5349 20.5625 14.6833 20.8164C14.7834 20.5542 14.6747 20.3111 14.8032 20.1121C14.9391 20.3969 14.8722 20.6924 14.8396 20.9833C14.8296 21.0726 14.7635 21.153 14.6468 21.1407C14.5378 21.1292 14.5358 21.0464 14.5264 20.9642C14.5057 20.783 14.4763 20.6026 14.4587 20.4211C14.4324 20.1501 14.3373 20.3267 14.2589 20.3875C14.2557 20.3197 14.2523 20.2519 14.249 20.1841C14.329 20.1274 14.3208 20.045 14.3135 19.9628C14.3137 19.9249 14.3139 19.887 14.314 19.8493C14.425 19.7835 14.3525 19.6276 14.4564 19.5582C14.4576 19.6831 14.4379 19.8212 14.5987 19.8686C14.7308 19.9074 14.8438 19.8529 14.9361 19.7631C15.0753 19.6279 15.2061 19.4829 15.4239 19.4905Z" fill="#FC8C2C"/>
<path fill-rule="evenodd" clip-rule="evenodd" d="M15.7051 18.8712C15.9482 19.1703 15.8682 19.3469 15.4248 19.4901C15.5335 19.2907 15.7863 19.1567 15.7051 18.8712Z" fill="#FC8C2C"/>
<path fill-rule="evenodd" clip-rule="evenodd" d="M17.0104 20.039C17.0107 19.9966 17.011 19.9542 17.0113 19.9118C17.0113 19.8872 17.0112 19.8627 17.0111 19.8383L17.0138 19.8346C17.0592 19.7665 17.1047 19.6984 17.1502 19.6304C17.1505 19.7659 17.1673 19.9038 17.1473 20.0362C17.1188 20.2245 17.0572 20.0296 17.0104 20.039Z" fill="#FC8C2C"/>
<path fill-rule="evenodd" clip-rule="evenodd" d="M16.9479 19.8997C16.9242 19.8759 16.9006 19.8521 16.877 19.8282C16.9261 19.7592 16.9717 19.767 17.0145 19.8345C17.0145 19.8345 17.0118 19.8382 17.0118 19.8381C16.9905 19.8586 16.9692 19.8791 16.9479 19.8997Z" fill="#FC8C2C"/>
<path fill-rule="evenodd" clip-rule="evenodd" d="M16.9412 20.1783C16.9746 20.1548 17.008 20.1314 17.0412 20.1078C17.0341 20.1412 17.0272 20.1746 17.0202 20.2079C16.9938 20.1981 16.9675 20.1882 16.9412 20.1783Z" fill="#FC8C2C"/>
<path fill-rule="evenodd" clip-rule="evenodd" d="M14.8037 20.1121C14.6749 20.3112 14.7839 20.5543 14.6835 20.8165C14.5347 20.5625 14.6126 20.3225 14.5687 20.1057C14.5521 20.0237 14.7173 20.0536 14.8019 20.0407C14.8025 20.0645 14.8031 20.0883 14.8037 20.1121Z" fill="#F79507"/>
<path fill-rule="evenodd" clip-rule="evenodd" d="M16.6523 14.0656C16.6347 14.2106 16.554 14.1179 16.5275 14.0313C16.3953 13.9442 16.2691 13.9549 16.1559 14.0632C15.9348 14.2747 15.4779 14.3614 15.2338 14.2342C15.2262 14.2302 15.2212 14.221 15.215 14.2143C15.24 14.1989 15.2649 14.1836 15.2898 14.1683C15.2896 14.125 15.2894 14.0817 15.2891 14.0384C15.4518 13.896 15.4644 13.7325 15.3574 13.5522C15.1667 13.3325 15.3154 13.0763 15.2891 12.8389C15.2841 12.794 15.3803 12.7992 15.4212 12.8559C15.5797 13.0235 15.7397 12.923 15.8996 12.8588C16.1081 12.7112 16.3466 12.7754 16.5629 12.8006C16.7107 12.8178 16.625 12.8978 16.5332 12.9245C16.5078 12.9243 16.4823 12.9241 16.4568 12.9239L16.4246 12.922L16.3925 12.9239C16.3791 12.9849 16.3129 13.1039 16.3777 13.0979C16.6565 13.0719 16.5331 13.3012 16.5986 13.4061C16.7431 13.6141 16.6783 13.8514 16.6523 14.0656ZM14.1154 20.4179C14.1181 20.4082 14.1214 20.3988 14.1242 20.3893C14.1214 20.3988 14.1181 20.4082 14.1154 20.4179ZM13.9764 21.2234C14.0103 21.2248 14.0444 21.1921 14.0764 21.1233C14.0444 21.1921 14.0103 21.2248 13.9764 21.2234ZM13.9363 21.1563C13.9693 21.1866 14.0027 21.2098 14.0364 21.2217C14.0027 21.2098 13.9693 21.1866 13.9363 21.1563ZM13.867 21.0859C13.8976 21.1319 13.9316 21.1654 13.9671 21.186C13.9316 21.1654 13.8976 21.1319 13.867 21.0859ZM14.0004 20.0852C13.9661 20.1177 13.9327 20.1511 13.9004 20.1853C13.9327 20.1511 13.9661 20.1177 14.0004 20.0852ZM14.0997 20.5215C14.1014 20.5038 14.1032 20.486 14.105 20.4684C14.1032 20.486 14.1014 20.5038 14.0997 20.5215ZM14.0944 20.5813C14.0974 20.5479 14.1007 20.5145 14.1042 20.4812C14.1007 20.5145 14.0974 20.5479 14.0944 20.5813ZM13.9652 19.9956C14.0017 19.9353 14.0425 19.8882 14.0866 19.8606C14.0928 19.8567 14.0996 19.8536 14.1068 19.8511C14.0996 19.8536 14.0928 19.8567 14.0866 19.8606C14.0425 19.8882 14.0017 19.9353 13.9652 19.9956C13.9552 20.0121 13.9456 20.0295 13.9363 20.0477C13.9456 20.0295 13.9552 20.0121 13.9652 19.9956ZM13.5939 20.6844C13.5918 20.734 13.575 20.7829 13.5432 20.8298C13.5297 20.8499 13.5133 20.8696 13.4941 20.8888C13.5133 20.8696 13.5297 20.8499 13.5432 20.8298C13.575 20.7829 13.5918 20.734 13.5939 20.6844C13.5942 20.6773 13.5942 20.6702 13.5939 20.6631C13.5942 20.6702 13.5942 20.6773 13.5939 20.6844ZM13.4987 21.0928C13.5134 21.0601 13.5272 21.0266 13.5408 20.9927C13.5272 21.0266 13.5134 21.0601 13.4987 21.0928ZM13.5477 20.4143C13.5312 20.3805 13.5139 20.3471 13.4957 20.3142C13.5139 20.3471 13.5312 20.3805 13.5477 20.4143ZM13.5546 20.4513C13.5383 20.4175 13.5209 20.3841 13.5025 20.3511C13.5209 20.3841 13.5383 20.4175 13.5546 20.4513ZM13.2147 19.9246C13.2153 19.9404 13.2158 19.9562 13.2163 19.9721C13.2671 19.9938 13.3322 20.0023 13.3663 20.0394C13.4015 20.0778 13.4305 20.142 13.4528 20.2213C13.4605 20.2487 13.4674 20.2778 13.4735 20.3083C13.4674 20.2778 13.4605 20.2487 13.4528 20.2213C13.4305 20.142 13.4015 20.0778 13.3663 20.0394C13.3322 20.0023 13.2671 19.9938 13.2163 19.9721C13.2158 19.9563 13.2153 19.9404 13.2147 19.9246ZM13.5564 20.5107C13.544 20.4771 13.5306 20.4437 13.5163 20.4106C13.5306 20.4437 13.544 20.4771 13.5564 20.5107ZM13.572 20.6186C13.5671 20.5974 13.5593 20.5761 13.5485 20.555C13.5416 20.5413 13.5334 20.5276 13.524 20.5139C13.5334 20.5276 13.5416 20.5413 13.5485 20.555C13.5593 20.5761 13.5671 20.5974 13.572 20.6186ZM19.6346 21.1422C19.5106 20.8544 19.701 20.5109 19.5894 20.2213L19.5116 19.899C19.5119 19.6908 19.431 19.4926 19.4313 19.2843C19.2343 18.3705 19.1113 17.4424 18.8804 16.5348C18.573 15.3263 18.2347 14.1327 17.4839 13.1063C16.8241 12.2043 15.9028 11.9704 15.0767 12.5198C14.8237 12.688 14.617 12.9259 14.389 13.132C14.3203 13.3152 14.2516 13.4984 14.1829 13.6815C14.0976 14.9431 14.1908 16.2199 13.843 17.4594C13.753 17.7801 13.6525 18.0958 13.5079 18.3928C13.4209 18.5715 13.36 18.749 13.341 18.9438C13.3735 19.2293 13.1389 19.4718 13.2094 19.7634V19.7635C13.1117 19.8703 13.1375 20.0062 13.151 20.1236C13.1901 20.4637 13.2305 20.8025 13.2132 21.1456C13.1238 21.1949 13.258 21.3078 13.1543 21.3531C13.155 21.3979 13.1556 21.4428 13.1563 21.4876C13.2317 21.6667 13.3489 21.8314 13.3471 22.0373C13.4797 22.5047 13.817 22.8695 13.9882 23.3182C14.0619 23.5115 14.1425 23.7006 14.1037 23.9144C14.1269 23.9137 14.1502 23.913 14.1736 23.9122C14.8749 23.9182 15.5721 23.8815 16.2556 23.7066C16.0473 23.6323 15.8301 23.6454 15.6143 23.6309C15.3864 23.6155 15.1247 23.6386 15.0135 23.3548C14.6662 23.0387 14.2586 22.7676 14.1871 22.2458C14.1705 21.8522 14.1111 21.4565 14.2421 21.0698C14.2428 21.0068 14.2436 20.9439 14.2444 20.8809C14.2216 20.8766 14.1989 20.8723 14.1761 20.868C14.1775 20.7696 14.1966 20.6765 14.2573 20.5958C14.2583 20.5262 14.2592 20.4566 14.2601 20.387C14.2568 20.3192 14.2534 20.2515 14.2501 20.1837C14.152 20.216 14.1047 20.2735 14.0807 20.3419C14.1047 20.2735 14.152 20.216 14.2501 20.1837C14.3301 20.1269 14.3219 20.0445 14.3146 19.9623C14.3148 19.9244 14.315 19.8865 14.3151 19.8488C14.2935 19.8464 14.2721 19.8426 14.251 19.8375C14.2963 19.7101 14.268 19.5411 14.4476 19.4898C14.7583 18.5517 15.0944 17.6258 15.5274 16.733C15.7029 16.3711 15.7443 15.9438 15.8434 15.5454C15.8655 15.4568 15.8729 15.3265 15.9642 15.3223C16.0894 15.3166 16.0868 15.4555 16.1124 15.5522C16.2552 16.0906 16.4312 16.6146 16.6339 17.1368C16.9434 17.934 17.3381 18.706 17.4947 19.559C17.5961 19.63 17.5491 19.7463 17.5803 19.8388C17.5745 19.8602 17.5705 19.882 17.5685 19.9042C17.6127 19.9967 17.6569 20.0892 17.7011 20.1817C17.7035 20.2602 17.6894 20.3438 17.7694 20.3977C17.7694 20.3977 17.7694 20.3977 17.7694 20.3977C17.7724 20.6493 17.7752 20.901 17.7781 21.1527C17.7766 21.4171 17.7744 21.6815 17.7738 21.9459C17.772 22.6365 17.3403 23.215 16.6686 23.4259C16.5796 23.5368 16.4217 23.4756 16.3237 23.564C16.301 23.6114 16.2783 23.6588 16.2556 23.7061C17.0286 23.6738 17.7595 23.447 18.4858 23.209C18.9175 23.0675 19.339 22.8945 19.765 22.7357C19.7216 22.2045 19.6781 21.6734 19.6346 21.1422Z" fill="#FF0000"/>
<path fill-rule="evenodd" clip-rule="evenodd" d="M16.3189 21.4957C16.6792 21.8526 16.6222 22.2646 16.1851 22.4617C16.1621 22.4821 16.1391 22.5025 16.1161 22.5228C16.0462 22.5236 15.9763 22.5245 15.9064 22.5253C15.8596 22.3386 15.6907 22.3657 15.5594 22.3269C15.5594 22.3269 15.559 22.3255 15.5591 22.3255C15.5149 21.5452 15.6812 21.4936 16.2557 21.4912C16.2557 21.4912 16.2551 21.4902 16.2551 21.4902C16.273 21.5312 16.2938 21.5385 16.3189 21.4957Z" fill="#F7C107"/>
<path fill-rule="evenodd" clip-rule="evenodd" d="M16.1103 17.552C16.221 17.8213 16.3489 18.089 16.184 18.3827C16.0634 18.3579 15.856 18.4593 15.853 18.2533C15.8493 18.0007 15.7752 17.6919 16.1103 17.552Z" fill="#F89109"/>
<path fill-rule="evenodd" clip-rule="evenodd" d="M16.1093 17.5519C15.7742 17.6918 15.8482 18.0006 15.852 18.2532C15.855 18.4593 16.0624 18.3578 16.1829 18.3826C15.8029 18.5268 15.6856 18.458 15.7027 18.0832C15.7163 17.7844 15.8199 17.5111 15.9818 17.2282C16.0717 17.3387 16.0951 17.4434 16.1093 17.5519Z" fill="#FC8C2C"/>
<path fill-rule="evenodd" clip-rule="evenodd" d="M16.2548 21.4912C15.6803 21.4936 15.514 21.5452 15.5582 22.3255C15.3344 22.0705 15.3198 21.8104 15.5161 21.5761C15.7279 21.3233 15.9492 21.2978 16.2548 21.4912Z" fill="#FC8C2C"/>
<path fill-rule="evenodd" clip-rule="evenodd" d="M15.5583 22.3266C15.6897 22.3654 15.8588 22.3383 15.9056 22.5252C15.7733 22.488 15.6037 22.516 15.5583 22.3266Z" fill="#FC8C2C"/>
<path fill-rule="evenodd" clip-rule="evenodd" d="M16.2824 20.0423C16.2704 20.1389 16.3231 20.247 16.1838 20.3208C16.1975 20.2245 16.1373 20.115 16.2824 20.0423Z" fill="#FA5E53"/>
<path fill-rule="evenodd" clip-rule="evenodd" d="M16.3925 19.9731C16.3623 20.0531 16.311 20.073 16.2526 20.0732C16.2816 19.9901 16.3346 19.9746 16.3925 19.9731Z" fill="#FA5E53"/>
<path fill-rule="evenodd" clip-rule="evenodd" d="M16.3556 21.5066C16.3163 21.6307 16.2837 21.6096 16.2556 21.4909C16.2893 21.4883 16.3227 21.4936 16.3556 21.5066Z" fill="#FC8C2C"/>
<path fill-rule="evenodd" clip-rule="evenodd" d="M16.1163 22.562C16.1496 22.5286 16.183 22.4953 16.2164 22.4619C16.183 22.4953 16.1496 22.5286 16.1163 22.562Z" fill="#FC8C2C"/>
<path fill-rule="evenodd" clip-rule="evenodd" d="M16.9471 19.9216C16.9803 19.8937 17.0136 19.8658 17.0468 19.8379C17.0469 19.8713 17.047 19.9046 17.0472 19.938C17.0135 19.9342 16.9801 19.9287 16.9471 19.9216Z" fill="#F89109"/>
<path fill-rule="evenodd" clip-rule="evenodd" d="M16.1843 22.4617C16.1613 22.4821 16.1383 22.5025 16.1153 22.5228C16.0454 22.5236 15.9755 22.5244 15.9055 22.5253C15.7733 22.4881 15.6039 22.5162 15.5586 22.3269L15.5582 22.3255C15.3344 22.0705 15.3198 21.8104 15.5161 21.5761C15.7279 21.3233 15.9492 21.2978 16.2548 21.4912L16.2543 21.4902C16.2757 21.4893 16.297 21.4912 16.318 21.4957C16.6783 21.8526 16.6213 22.2646 16.1843 22.4617ZM15.7238 21.0005C15.7222 21.0337 15.7272 21.0671 15.7387 21.1006C15.7272 21.0671 15.7222 21.0337 15.7238 21.0005ZM15.7029 18.0832C15.7165 17.7845 15.8202 17.5111 15.982 17.2283C16.0719 17.3388 16.0953 17.4434 16.1095 17.5519C16.2202 17.8212 16.3481 18.0889 16.1832 18.3826C15.8031 18.5269 15.6859 18.458 15.7029 18.0832ZM16.7433 19.8083C16.7101 19.8251 16.6767 19.8408 16.6432 19.8563C16.6767 19.8408 16.7101 19.8251 16.7433 19.8083ZM16.4622 20.6657C16.4331 20.4642 16.4729 20.2919 16.6664 20.1849C16.6905 20.1818 16.7146 20.1788 16.7387 20.1757C16.8061 20.1749 16.8734 20.174 16.9408 20.1732C16.9624 20.1511 16.984 20.129 17.0056 20.1069C17.0054 20.0838 17.0069 20.0608 17.0102 20.038C17.0105 19.9956 17.0108 19.9532 17.011 19.9108C16.9895 19.9079 16.9681 19.9039 16.947 19.8987C16.9233 19.8749 16.8997 19.8512 16.8761 19.8273C16.8334 19.8058 16.7907 19.7843 16.7479 19.7629C16.6641 19.6354 16.5435 19.551 16.4213 19.4628C16.1144 19.2415 16.1166 19.0965 16.4228 18.8528C16.6215 18.6947 16.7831 18.5136 16.7298 18.2411C16.6252 17.7068 16.3646 17.2298 16.1418 16.7407C16.0678 16.5784 15.9516 16.5547 15.8556 16.7509C15.7042 17.0606 15.5691 17.3758 15.4471 17.6988C15.2162 18.3103 15.2317 18.4221 15.7044 18.8705C15.9476 19.1697 15.8676 19.3463 15.4241 19.4895C15.4241 19.4895 15.4237 19.4898 15.4237 19.4898C15.3653 19.7089 15.0559 19.7721 15.0806 20.0428C15.137 20.0811 15.189 20.1296 15.2505 20.1562C15.7084 20.354 15.7125 20.3992 15.3518 20.7497C14.9199 21.1696 14.7519 21.6549 14.8953 22.2723C14.988 22.6715 15.2458 22.95 15.4306 23.2821C15.8398 23.5293 16.2502 23.5649 16.6624 23.289C16.9356 22.9611 17.1561 22.6045 17.2164 22.1734C17.3105 21.5009 16.9661 21.042 16.4622 20.6657Z" fill="#FF0000"/>
<path fill-rule="evenodd" clip-rule="evenodd" d="M16.304 20.0807C16.3012 20.0828 16.2987 20.0848 16.2959 20.0869C16.2946 20.0893 16.2933 20.0913 16.2921 20.0938L16.304 20.0807Z" fill="#EE472B"/>
<path fill-rule="evenodd" clip-rule="evenodd" d="M16.2921 20.0937C16.2958 20.0937 16.2994 20.0935 16.303 20.0935C16.3034 20.0893 16.3036 20.085 16.304 20.0807C16.304 20.0807 16.2921 20.0938 16.2921 20.0937Z" fill="#EE472B"/>
</g>
</g>
<path d="M41.368 3.744C42.0187 3.744 42.5947 3.808 43.096 3.936C43.5973 4.064 44.0453 4.22933 44.44 4.432L43.944 6.064C43.5067 5.85067 43.0853 5.69067 42.68 5.584C42.2747 5.46667 41.88 5.408 41.496 5.408C40.984 5.408 40.584 5.50933 40.296 5.712C40.0187 5.91467 39.88 6.18667 39.88 6.528C39.88 6.88 40.0027 7.14667 40.248 7.328C40.4933 7.50933 40.888 7.68533 41.432 7.856L42.392 8.16C43.192 8.42667 43.816 8.80533 44.264 9.296C44.7227 9.78667 44.952 10.3893 44.952 11.104C44.952 11.5307 44.872 11.9307 44.712 12.304C44.552 12.6773 44.312 13.0027 43.992 13.28C43.672 13.5573 43.272 13.776 42.792 13.936C42.312 14.096 41.752 14.176 41.112 14.176C39.9067 14.176 38.8027 13.9307 37.8 13.44L38.296 11.808C38.7547 12.032 39.2027 12.208 39.64 12.336C40.0773 12.4533 40.536 12.512 41.016 12.512C41.5813 12.512 42.008 12.4107 42.296 12.208C42.584 11.9947 42.728 11.7013 42.728 11.328C42.728 11.2 42.7013 11.0773 42.648 10.96C42.6053 10.832 42.52 10.7147 42.392 10.608C42.264 10.4907 42.088 10.3787 41.864 10.272C41.6507 10.1547 41.368 10.0427 41.016 9.936L40.168 9.648C39.7947 9.52 39.4533 9.37067 39.144 9.2C38.8347 9.02933 38.568 8.832 38.344 8.608C38.1307 8.384 37.96 8.12267 37.832 7.824C37.7147 7.51467 37.656 7.15733 37.656 6.752C37.656 6.31467 37.736 5.91467 37.896 5.552C38.056 5.17867 38.2907 4.85867 38.6 4.592C38.92 4.32533 39.3093 4.11733 39.768 3.968C40.2373 3.81867 40.7707 3.744 41.368 3.744ZM46.2181 14V6.368H47.8661L48.1061 7.744C48.2875 7.33867 48.5755 6.98133 48.9701 6.672C49.3648 6.36267 49.8608 6.208 50.4581 6.208C50.7035 6.208 50.9221 6.23467 51.1141 6.288C51.3061 6.34133 51.4661 6.40533 51.5941 6.48L51.2421 8.16C51.1248 8.096 50.9755 8.04267 50.7941 8C50.6128 7.94667 50.3995 7.92 50.1541 7.92C49.6315 7.92 49.1941 8.096 48.8421 8.448C48.5008 8.78933 48.3301 9.35467 48.3301 10.144V14H46.2181ZM52.2304 14V6.368H54.3584V14H52.2304ZM53.3024 4.736C52.9397 4.736 52.657 4.63467 52.4544 4.432C52.2517 4.21867 52.1504 3.95733 52.1504 3.648C52.1504 3.33867 52.2517 3.08267 52.4544 2.88C52.657 2.66667 52.9397 2.56 53.3024 2.56C53.6544 2.56 53.9317 2.66667 54.1344 2.88C54.3477 3.08267 54.4544 3.33867 54.4544 3.648C54.4544 3.95733 54.353 4.21867 54.1504 4.432C53.9477 4.63467 53.665 4.736 53.3024 4.736ZM60.3077 3.92H63.0757L64.5157 8.512C64.5797 8.71467 64.6437 8.93333 64.7077 9.168C64.7824 9.40267 64.8517 9.63733 64.9157 9.872C64.9797 10.1067 65.0384 10.336 65.0917 10.56C65.1451 10.784 65.1877 10.992 65.2197 11.184H65.2837C65.3157 11.0133 65.3584 10.816 65.4117 10.592C65.4651 10.3573 65.5237 10.1173 65.5877 9.872C65.6517 9.62667 65.7157 9.38667 65.7797 9.152C65.8437 8.91733 65.9024 8.704 65.9557 8.512L67.3477 3.92H70.1158L70.8678 14H68.8038C68.7397 12.8907 68.6757 11.7813 68.6117 10.672C68.5477 9.56267 68.5051 8.44267 68.4837 7.312L68.4677 6H68.4198C68.2811 6.58667 68.1264 7.2 67.9557 7.84C67.7957 8.48 67.6411 9.04 67.4917 9.52L66.0677 14H64.3717L62.9157 9.504C62.7344 8.928 62.5637 8.32 62.4037 7.68C62.2437 7.04 62.1157 6.48 62.0197 6H61.9717C61.9717 6.384 61.9664 6.78933 61.9557 7.216C61.9451 7.632 61.9291 8.048 61.9077 8.464C61.8971 8.88 61.8811 9.29067 61.8597 9.696C61.8491 10.0907 61.8331 10.4533 61.8117 10.784L61.6197 14H59.5877L60.3077 3.92ZM72.6599 7.04C73.1185 6.77333 73.6039 6.57067 74.1159 6.432C74.6279 6.28267 75.1719 6.208 75.7479 6.208C76.2065 6.208 76.6225 6.26133 76.9959 6.368C77.3799 6.47467 77.7052 6.64533 77.9719 6.88C78.2492 7.104 78.4572 7.39733 78.5959 7.76C78.7452 8.112 78.8199 8.53867 78.8199 9.04V14H77.1719L76.9799 13.216H76.9159C76.6705 13.5147 76.3559 13.7493 75.9719 13.92C75.5985 14.0907 75.1612 14.176 74.6599 14.176C74.2439 14.176 73.8759 14.1173 73.5559 14C73.2359 13.872 72.9639 13.7067 72.7399 13.504C72.5159 13.2907 72.3452 13.04 72.2279 12.752C72.1212 12.464 72.0679 12.1547 72.0679 11.824C72.0679 11.3867 72.1585 11.0133 72.3399 10.704C72.5319 10.384 72.7932 10.1227 73.1239 9.92C73.4545 9.71733 73.8385 9.568 74.2759 9.472C74.7239 9.376 75.2039 9.328 75.7159 9.328H76.6759V8.864C76.6759 8.512 76.5639 8.256 76.3399 8.096C76.1265 7.92533 75.8225 7.84 75.4279 7.84C75.1185 7.84 74.7985 7.888 74.4679 7.984C74.1479 8.08 73.7905 8.23467 73.3959 8.448L72.6599 7.04ZM76.6919 10.656L76.0039 10.672C75.3532 10.6933 74.8999 10.8053 74.6439 11.008C74.3879 11.2 74.2599 11.4347 74.2599 11.712C74.2599 12.0747 74.3665 12.3253 74.5799 12.464C74.8039 12.592 75.0545 12.656 75.3319 12.656C75.6092 12.656 75.8705 12.576 76.1159 12.416C76.3719 12.256 76.5639 12.0693 76.6919 11.856V10.656ZM82.4336 14H80.3056V6.368H81.9696L82.2256 7.344C82.5776 6.98133 82.9616 6.704 83.3776 6.512C83.8043 6.30933 84.2736 6.208 84.7856 6.208C85.6283 6.208 86.2736 6.43733 86.7216 6.896C87.1696 7.35467 87.3936 8.02133 87.3936 8.896V14H85.2656V9.12C85.2656 8.72533 85.1696 8.416 84.9776 8.192C84.7856 7.95733 84.503 7.84 84.1296 7.84C83.8523 7.84 83.559 7.92 83.2496 8.08C82.951 8.22933 82.679 8.43733 82.4336 8.704V14ZM93.9449 2.576H96.0729V14H94.5529L94.3289 13.168H94.2489C94.0569 13.4347 93.7795 13.6693 93.4169 13.872C93.0649 14.0747 92.6009 14.176 92.0249 14.176C91.5449 14.176 91.0969 14.0853 90.6809 13.904C90.2649 13.7227 89.9022 13.4613 89.5929 13.12C89.2835 12.7787 89.0382 12.3627 88.8569 11.872C88.6862 11.3813 88.6009 10.8213 88.6009 10.192C88.6009 9.584 88.6809 9.03467 88.8409 8.544C89.0009 8.05333 89.2302 7.63733 89.5289 7.296C89.8275 6.944 90.1955 6.67733 90.6329 6.496C91.0702 6.304 91.5715 6.208 92.1369 6.208C92.4995 6.208 92.8409 6.26133 93.1609 6.368C93.4915 6.47467 93.7529 6.61333 93.9449 6.784V2.576ZM93.9449 8.368C93.8062 8.19733 93.6249 8.05333 93.4009 7.936C93.1769 7.81867 92.9315 7.76 92.6649 7.76C92.4089 7.76 92.1635 7.80267 91.9289 7.888C91.7049 7.97333 91.5022 8.112 91.3209 8.304C91.1502 8.48533 91.0115 8.73067 90.9049 9.04C90.7982 9.33867 90.7449 9.70667 90.7449 10.144C90.7449 10.5707 90.7929 10.9387 90.8889 11.248C90.9849 11.5573 91.1129 11.8133 91.2729 12.016C91.4329 12.2187 91.6195 12.368 91.8329 12.464C92.0569 12.56 92.2915 12.608 92.5369 12.608C92.8782 12.608 93.1662 12.528 93.4009 12.368C93.6462 12.1973 93.8275 12 93.9449 11.776V8.368ZM97.8885 14V6.368H100.016V14H97.8885ZM98.9605 4.736C98.5978 4.736 98.3152 4.63467 98.1125 4.432C97.9098 4.21867 97.8085 3.95733 97.8085 3.648C97.8085 3.33867 97.9098 3.08267 98.1125 2.88C98.3152 2.66667 98.5978 2.56 98.9605 2.56C99.3125 2.56 99.5898 2.66667 99.7925 2.88C100.006 3.08267 100.112 3.33867 100.112 3.648C100.112 3.95733 100.011 4.21867 99.8085 4.432C99.6058 4.63467 99.3232 4.736 98.9605 4.736ZM101.814 14V6.368H103.462L103.702 7.744C103.884 7.33867 104.172 6.98133 104.566 6.672C104.961 6.36267 105.457 6.208 106.054 6.208C106.3 6.208 106.518 6.23467 106.71 6.288C106.902 6.34133 107.062 6.40533 107.19 6.48L106.838 8.16C106.721 8.096 106.572 8.04267 106.39 8C106.209 7.94667 105.996 7.92 105.75 7.92C105.228 7.92 104.79 8.096 104.438 8.448C104.097 8.78933 103.926 9.35467 103.926 10.144V14H101.814Z" fill="black"/>
<path d="M40.245 20.146C41.2717 20.146 42.0197 20.355 42.489 20.773C42.9583 21.1837 43.193 21.7593 43.193 22.5C43.193 22.83 43.138 23.1453 43.028 23.446C42.9253 23.7467 42.753 24.018 42.511 24.26C42.269 24.4947 41.9463 24.6817 41.543 24.821C41.147 24.953 40.6593 25.019 40.08 25.019H39.233V28H38.045V20.146H40.245ZM40.157 21.147H39.233V24.018H39.948C40.3953 24.018 40.7693 23.9703 41.07 23.875C41.3707 23.7723 41.5943 23.6147 41.741 23.402C41.895 23.182 41.972 22.896 41.972 22.544C41.972 22.0747 41.8253 21.7263 41.532 21.499C41.246 21.2643 40.7877 21.147 40.157 21.147ZM49.5324 22.071V28H48.5974L48.4324 27.219H48.3774C48.2527 27.4243 48.0914 27.593 47.8934 27.725C47.6954 27.857 47.479 27.9523 47.2444 28.011C47.0097 28.077 46.7677 28.11 46.5184 28.11C46.0564 28.11 45.664 28.0367 45.3414 27.89C45.026 27.736 44.784 27.5013 44.6154 27.186C44.454 26.8633 44.3734 26.4527 44.3734 25.954V22.071H45.5504V25.778C45.5504 26.24 45.6457 26.5847 45.8364 26.812C46.0344 27.0393 46.3387 27.153 46.7494 27.153C47.16 27.153 47.4827 27.0723 47.7174 26.911C47.952 26.7497 48.117 26.515 48.2124 26.207C48.315 25.8917 48.3664 25.514 48.3664 25.074V22.071H49.5324ZM50.5101 30.64C50.3267 30.64 50.1581 30.6253 50.0041 30.596C49.8427 30.574 49.7034 30.5447 49.5861 30.508V29.573C49.7034 29.6023 49.8207 29.628 49.9381 29.65C50.0554 29.672 50.1874 29.683 50.3341 29.683C50.5614 29.683 50.7521 29.617 50.9061 29.485C51.0601 29.3603 51.1371 29.1183 51.1371 28.759V22.071H52.3031V28.814C52.3031 29.1807 52.2407 29.4997 52.1161 29.771C51.9914 30.0497 51.7971 30.2623 51.5331 30.409C51.2764 30.563 50.9354 30.64 50.5101 30.64ZM51.0601 20.487C51.0601 20.245 51.1224 20.0727 51.2471 19.97C51.3791 19.8673 51.5404 19.816 51.7311 19.816C51.9071 19.816 52.0611 19.8673 52.1931 19.97C52.3251 20.0727 52.3911 20.245 52.3911 20.487C52.3911 20.7217 52.3251 20.894 52.1931 21.004C52.0611 21.1067 51.9071 21.158 51.7311 21.158C51.5404 21.158 51.3791 21.1067 51.2471 21.004C51.1224 20.894 51.0601 20.7217 51.0601 20.487ZM56.2131 21.961C56.9611 21.961 57.5185 22.126 57.8851 22.456C58.2518 22.7787 58.4351 23.2883 58.4351 23.985V28H57.6101L57.3791 27.175H57.3351C57.1665 27.3877 56.9905 27.5637 56.8071 27.703C56.6311 27.8423 56.4258 27.945 56.1911 28.011C55.9638 28.077 55.6851 28.11 55.3551 28.11C55.0031 28.11 54.6841 28.0477 54.3981 27.923C54.1195 27.791 53.8995 27.593 53.7381 27.329C53.5768 27.0577 53.4961 26.7203 53.4961 26.317C53.4961 25.7157 53.7235 25.2573 54.1781 24.942C54.6401 24.6267 55.3405 24.4543 56.2791 24.425L57.2911 24.392V24.062C57.2911 23.622 57.1921 23.314 56.9941 23.138C56.7961 22.962 56.5175 22.874 56.1581 22.874C55.8501 22.874 55.5568 22.918 55.2781 23.006C54.9995 23.094 54.7355 23.2003 54.4861 23.325L54.1121 22.478C54.3908 22.3313 54.7098 22.2103 55.0691 22.115C55.4358 22.0123 55.8171 21.961 56.2131 21.961ZM56.4881 25.173C55.8135 25.2023 55.3441 25.316 55.0801 25.514C54.8235 25.7047 54.6951 25.976 54.6951 26.328C54.6951 26.636 54.7868 26.8597 54.9701 26.999C55.1608 27.1383 55.3991 27.208 55.6851 27.208C56.1471 27.208 56.5285 27.0797 56.8291 26.823C57.1298 26.5663 57.2801 26.1813 57.2801 25.668V25.151L56.4881 25.173ZM67.29 25.877C67.29 26.3463 67.1763 26.746 66.949 27.076C66.7216 27.406 66.3953 27.6627 65.97 27.846C65.5446 28.022 65.0386 28.11 64.452 28.11C64.166 28.11 63.891 28.0917 63.627 28.055C63.363 28.0257 63.1173 27.9817 62.89 27.923C62.6626 27.8643 62.461 27.791 62.285 27.703V26.581C62.5783 26.713 62.923 26.834 63.319 26.944C63.715 27.0467 64.1183 27.098 64.529 27.098C64.881 27.098 65.1743 27.0503 65.409 26.955C65.6436 26.8597 65.8196 26.7277 65.937 26.559C66.0543 26.3903 66.113 26.1923 66.113 25.965C66.113 25.723 66.0506 25.5213 65.926 25.36C65.8086 25.1913 65.6216 25.0373 65.365 24.898C65.1156 24.7513 64.7783 24.5973 64.353 24.436C64.0596 24.326 63.792 24.205 63.55 24.073C63.3153 23.9337 63.1063 23.7723 62.923 23.589C62.747 23.4057 62.6113 23.193 62.516 22.951C62.4206 22.709 62.373 22.4267 62.373 22.104C62.373 21.6713 62.4793 21.301 62.692 20.993C62.912 20.685 63.2126 20.4503 63.594 20.289C63.9753 20.1203 64.419 20.036 64.925 20.036C65.3503 20.036 65.7426 20.08 66.102 20.168C66.4686 20.2487 66.817 20.3623 67.147 20.509L66.773 21.488C66.4723 21.3633 66.168 21.2607 65.86 21.18C65.552 21.0993 65.2293 21.059 64.892 21.059C64.5986 21.059 64.353 21.103 64.155 21.191C63.957 21.279 63.8066 21.4 63.704 21.554C63.6086 21.708 63.561 21.8877 63.561 22.093C63.561 22.335 63.616 22.5367 63.726 22.698C63.836 22.8593 64.012 23.0097 64.254 23.149C64.496 23.281 64.815 23.4277 65.211 23.589C65.651 23.7577 66.025 23.941 66.333 24.139C66.6483 24.337 66.8866 24.5753 67.048 24.854C67.2093 25.1253 67.29 25.4663 67.29 25.877ZM70.8078 21.961C71.3285 21.961 71.7758 22.071 72.1498 22.291C72.5238 22.5037 72.8098 22.8117 73.0078 23.215C73.2131 23.6183 73.3158 24.095 73.3158 24.645V25.283H69.3338C69.3485 25.8917 69.5061 26.3573 69.8068 26.68C70.1148 27.0027 70.5438 27.164 71.0938 27.164C71.4751 27.164 71.8125 27.131 72.1058 27.065C72.4065 26.9917 72.7145 26.8853 73.0298 26.746V27.714C72.7365 27.846 72.4358 27.945 72.1278 28.011C71.8271 28.077 71.4678 28.11 71.0498 28.11C70.4778 28.11 69.9718 27.9963 69.5318 27.769C69.0918 27.5417 68.7471 27.2043 68.4978 26.757C68.2558 26.3023 68.1348 25.745 68.1348 25.085C68.1348 24.4177 68.2448 23.853 68.4648 23.391C68.6921 22.929 69.0038 22.577 69.3998 22.335C69.8031 22.0857 70.2725 21.961 70.8078 21.961ZM70.8078 22.863C70.3898 22.863 70.0525 22.9987 69.7958 23.27C69.5465 23.5413 69.3998 23.9263 69.3558 24.425H72.1498C72.1498 24.117 72.1021 23.8457 72.0068 23.611C71.9115 23.3763 71.7648 23.193 71.5668 23.061C71.3688 22.929 71.1158 22.863 70.8078 22.863ZM75.6669 28L73.4229 22.071H74.6549L75.8869 25.536C75.9382 25.6827 75.9896 25.8477 76.0409 26.031C76.0996 26.2143 76.1509 26.3903 76.1949 26.559C76.2389 26.7277 76.2682 26.8743 76.2829 26.999H76.3269C76.3489 26.8743 76.3819 26.7277 76.4259 26.559C76.4772 26.383 76.5322 26.207 76.5909 26.031C76.6496 25.8477 76.7009 25.6827 76.7449 25.536L77.9769 22.071H79.2089L76.9539 28H75.6669ZM82.2049 21.961C82.9529 21.961 83.5103 22.126 83.8769 22.456C84.2436 22.7787 84.4269 23.2883 84.4269 23.985V28H83.6019L83.3709 27.175H83.3269C83.1583 27.3877 82.9823 27.5637 82.7989 27.703C82.6229 27.8423 82.4176 27.945 82.1829 28.011C81.9556 28.077 81.6769 28.11 81.3469 28.11C80.9949 28.11 80.6759 28.0477 80.3899 27.923C80.1113 27.791 79.8913 27.593 79.7299 27.329C79.5686 27.0577 79.4879 26.7203 79.4879 26.317C79.4879 25.7157 79.7153 25.2573 80.1699 24.942C80.6319 24.6267 81.3323 24.4543 82.2709 24.425L83.2829 24.392V24.062C83.2829 23.622 83.1839 23.314 82.9859 23.138C82.7879 22.962 82.5093 22.874 82.1499 22.874C81.8419 22.874 81.5486 22.918 81.2699 23.006C80.9913 23.094 80.7273 23.2003 80.4779 23.325L80.1039 22.478C80.3826 22.3313 80.7016 22.2103 81.0609 22.115C81.4276 22.0123 81.8089 21.961 82.2049 21.961ZM82.4799 25.173C81.8053 25.2023 81.3359 25.316 81.0719 25.514C80.8153 25.7047 80.6869 25.976 80.6869 26.328C80.6869 26.636 80.7786 26.8597 80.9619 26.999C81.1526 27.1383 81.3909 27.208 81.6769 27.208C82.1389 27.208 82.5203 27.0797 82.8209 26.823C83.1216 26.5663 83.2719 26.1813 83.2719 25.668V25.151L82.4799 25.173Z" fill="#707070"/>
<defs>
<clipPath id="clip0_4354_630">
<rect width="32" height="32" fill="white"/>
</clipPath>
</defs>
</svg>
